<?xml version="1.0" encoding="utf-8"?>
<svg version="1.1" xmlns:xlink="http://www.w3.org/1999/xlink" width="34px" height="34px" xmlns="http://www.w3.org/2000/svg">
  <g transform="matrix(1 0 0 1 -25 -15 )">
    <path d="M 32.99441964285714 15.363750000000001  C 33.66480654761905 17.26208333333333  34 19.62083333333333  34 22.439999999999998  C 34 24.79166666666666  33.196800595238095 27.98625  31.590401785714285 32.02375  C 31.55245535714286 32.12291666666667  31.48604910714286 32.29291666666667  31.391183035714285 32.53375  C 31.29631696428572 32.77458333333333  31.210937500000004 32.98708333333333  31.135044642857142 33.17125  C 31.059151785714292 33.35541666666667  30.97693452380953 33.51125  30.888392857142858 33.63875  C 30.736607142857142 33.879583333333336  30.55952380952381 34  30.357142857142858 34  C 30.167410714285715 34  30.018787202380956 33.92916666666667  29.911272321428573 33.7875  C 29.803757440476193 33.64583333333333  29.75 33.46875  29.75 33.25625  C 29.75 33.12875  29.765811011904766 32.94104166666667  29.797433035714285 32.693125  C 29.82905505952381 32.44520833333333  29.844866071428573 32.27875  29.844866071428573 32.19375  C 29.90811011904762 31.230416666666667  29.93973214285715 30.359166666666667  29.939732142857142 29.58  C 29.93973214285715 28.14916666666667  29.829055059523814 26.867083333333333  29.607700892857142 25.73375  C 29.386346726190478 24.60041666666666  29.079613095238095 23.619375  28.6875 22.790625  C 28.29538690476191 21.961875000000003  27.789434523809526 21.24645833333333  27.169642857142858 20.644375  C 26.549851190476193 20.042291666666667  25.882626488095237 19.549999999999997  25.16796875 19.1675  C 24.453311011904766 18.785  23.612165178571427 18.48395833333333  22.64453125 18.264374999999998  C 21.676897321428573 18.04479166666667  20.702938988095237 17.8925  19.72265625 17.807499999999997  C 18.742373511904763 17.7225  17.632440476190474 17.68  16.392857142857142 17.68  L 12.142857142857142 17.68  L 12.142857142857142 23.119999999999997  C 12.142857142857142 23.488333333333333  12.022693452380954 23.80708333333333  11.782366071428571 24.07625  C 11.542038690476192 24.345416666666665  11.257440476190478 24.48  10.928571428571429 24.48  C 10.599702380952383 24.48  10.315104166666668 24.345416666666665  10.074776785714286 24.07625  L 0.36049107142857145 13.196250000000003  C 0.12016369047619048 12.92708333333333  0 12.60833333333333  0 12.24  C 0 11.871666666666666  0.12016369047619048 11.552916666666665  0.36049107142857145 11.283750000000001  L 10.074776785714286 0.40374999999999894  C 10.315104166666668 0.13458333333333172  10.599702380952383 0  10.928571428571429 0  C 11.257440476190478 0  11.542038690476192 0.13458333333333172  11.782366071428571 0.40374999999999894  C 12.022693452380954 0.6729166666666624  12.142857142857142 0.9916666666666631  12.142857142857142 1.3600000000000012  L 12.142857142857142 6.799999999999999  L 16.392857142857142 6.799999999999999  C 25.411458333333336 6.799999999999999  30.9453125 9.654583333333333  32.99441964285714 15.363750000000001  Z " fill-rule="nonzero" fill="#000000" stroke="none" transform="matrix(1 0 0 1 25 15 )" />
  </g>
</svg>