<?xml version="1.0" encoding="utf-8"?>
<svg version="1.1" xmlns:xlink="http://www.w3.org/1999/xlink" width="40px" height="43px" xmlns="http://www.w3.org/2000/svg">
  <g transform="matrix(1 0 0 1 -109 -150 )">
    <path d="M 39.6875 20.797585227272727  C 39.895833333333336 20.980823863636363  40 21.214962121212118  40 21.5  C 40 25.388731060606055  38.90625 28.98224431818182  36.71875 32.28053977272727  C 34.53125000000001 35.57883522727273  31.562500000000004 38.18998579545455  27.8125 40.11399147727273  C 24.0625 42.037997159090914  19.976851851851855 43  15.555555555555555 43  L 10 43  C 9.675925925925927 43  9.409722222222221 42.90838068181819  9.20138888888889 42.72514204545455  C 8.993055555555555 42.541903409090914  8.88888888888889 42.30776515151515  9 42.02272727272727  L 9 23.362926136363637  L 1.4236111111111112 25.378551136363637  C 1.3541666666666665 25.39891098484848  1.25 25.409090909090907  1.1111111111111112 25.409090909090907  C 0.8796296296296297 25.409090909090907  0.6597222222222222 25.348011363636363  0.45138888888888895 25.225852272727273  C 0.15046296296296302 25.022253787878782  0 24.757575757575754  0 24.43181818181818  L 0 20.522727272727273  C 0 20.054450757575754  0.2662037037037037 19.738873106060602  0.798611111111111 19.575994318181817  L 8.88888888888889 17.407670454545453  L 8.88888888888889 14.56747159090909  L 1.4236111111111112 16.58309659090909  C 1.3541666666666665 16.603456439393934  1.25 16.61363636363636  1.1111111111111112 16.613636363636363  C 0.8796296296296297 16.61363636363636  0.6597222222222222 16.552556818181817  0.45138888888888895 16.430397727272727  C 0.15046296296296302 16.226799242424242  0 15.962121212121213  0 15.636363636363637  L 0 11.727272727272727  C 0 11.258996212121207  0.2662037037037037 10.943418560606057  0.798611111111111 10.780539772727273  L 8.88888888888889 8.61221590909091  L 8.88888888888889 0.9772727272727264  C 8.88888888888889 0.6922348484848443  8.993055555555555 0.4580965909090896  9.20138888888889 0.2748579545454528  C 9.409722222222221 0.09161931818181601  9.675925925925927 0  10 0  L 15.555555555555555 0  C 15.87962962962963 0  16.145833333333336 0.09161931818181601  16.354166666666668 0.2748579545454528  C 16.562500000000004 0.4580965909090896  16.66666666666667 0.6922348484848443  16.666666666666668 0.9772727272727264  L 16.666666666666668 6.50497159090909  L 29.6875 2.962357954545453  C 30.03472222222223 2.8605587121212075  30.3587962962963 2.9114583333333304  30.65972222222222 3.115056818181816  C 30.96064814814815 3.318655303030297  31.11111111111111 3.5833333333333304  31.11111111111111 3.9090909090909105  L 31.11111111111111 7.818181818181816  C 31.11111111111111 8.28645833333333  30.84490740740741 8.60203598484848  30.3125 8.764914772727273  L 16.666666666666668 12.460227272727273  L 16.666666666666668 15.300426136363637  L 29.6875 11.7578125  C 30.03472222222223 11.656013257575754  30.3587962962963 11.706912878787877  30.65972222222222 11.910511363636363  C 30.96064814814815 12.114109848484844  31.11111111111111 12.378787878787877  31.11111111111111 12.704545454545453  L 31.11111111111111 16.613636363636363  C 31.11111111111111 17.08191287878788  30.84490740740741 17.397490530303028  30.3125 17.560369318181817  L 17 21.255681818181817  L 17 36.12855113636364  C 21.01851851851852 35.8638731060606  24.699074074074076 34.32670454545455  27.708333333333336 31.517045454545453  C 30.717592592592595 28.707386363636363  32.22222222222222 25.368371212121207  32.22222222222222 21.5  C 32.22222222222222 21.214962121212118  32.326388888888886 20.980823863636363  32.53472222222222 20.797585227272727  C 32.74305555555556 20.61434659090909  33.00925925925926 20.522727272727273  33.333333333333336 20.522727272727273  L 38.888888888888886 20.522727272727273  C 39.21296296296297 20.522727272727273  39.479166666666664 20.61434659090909  39.6875 20.797585227272727  Z " fill-rule="nonzero" fill="#000000" stroke="none" transform="matrix(1 0 0 1 109 150 )" />
  </g>
</svg>