<?xml version="1.0" encoding="utf-8"?>
<svg version="1.1" xmlns:xlink="http://www.w3.org/1999/xlink" width="41px" height="40px" xmlns="http://www.w3.org/2000/svg">
  <g transform="matrix(1 0 0 1 -119 -266 )">
    <path d="M 0.822742474916388 31  L 40.17725752508361 31  L 40.97714604236343 38.41517857142857  C 41.02285395763657 38.83184523809524  40.90096618357488 39.20386904761905  40.61148272017837 39.53125  C 40.32199925678187 39.84375  39.95633593459681 40  39.51449275362319 40  L 1.4855072463768118 40  C 1.043664065403196 40  0.6780007432181345 39.84375  0.38851727982162765 39.53125  C 0.09903381642512077 39.20386904761905  -0.022853957636566332 38.83184523809524  0.022853957636566332 38.41517857142857  L 0.822742474916388 31  Z M 37.57190635451505 11.796875  C 37.84615384615385 12.042410714285715  38.00613154960981 12.34375  38.051839464882946 12.700892857142856  L 40.017279821627646 30  L 0.9827201783723523 30  L 2.9481605351170566 12.700892857142856  C 2.9938684503901896 12.34375  3.153846153846154 12.042410714285715  3.42809364548495 11.796875  C 3.702341137123746 11.551339285714285  4.029914529914531 11.428571428571427  4.410813823857302 11.428571428571427  L 10.261426978818283 11.428571428571427  L 10.261426978818283 14.285714285714285  C 10.261426978818283 15.07440476190476  10.547101449275361 15.747767857142856  11.11845039018952 16.305803571428573  C 11.689799331103679 16.863839285714285  12.379227053140099 17.142857142857146  13.186733556298773 17.142857142857146  C 13.994240059457452 17.142857142857146  14.683667781493869 16.863839285714285  15.255016722408026 16.305803571428573  C 15.826365663322186 15.747767857142856  16.112040133779264 15.07440476190476  16.112040133779264 14.285714285714285  L 16.112040133779264 11.428571428571427  L 24.887959866220736 11.428571428571427  L 24.887959866220736 14.285714285714285  C 24.887959866220736 15.07440476190476  25.173634336677818 15.747767857142856  25.74498327759197 16.305803571428573  C 26.316332218506133 16.863839285714285  27.00575994054255 17.142857142857146  27.813266443701224 17.142857142857146  C 28.62077294685991 17.142857142857146  29.31020066889632 16.863839285714285  29.88154960981048 16.305803571428573  C 30.452898550724637 15.747767857142856  30.738573021181715 15.07440476190476  30.738573021181715 14.285714285714285  L 30.738573021181715 11.428571428571427  L 36.5891861761427 11.428571428571427  C 36.97008547008547 11.428571428571427  37.297658862876254 11.551339285714285  37.57190635451505 11.796875  Z M 26.704849498327757 2.511160714285716  C 28.418896321070235 4.185267857142856  29.27591973244147 6.205357142857144  29.27591973244147 8.571428571428573  L 29.27591973244147 14.285714285714285  C 29.27591973244147 14.672619047619047  29.13117800074322 15.007440476190474  28.84169453734671 15.290178571428573  C 28.552211073950208 15.572916666666664  28.209401709401714 15.714285714285715  27.813266443701224 15.714285714285715  C 27.417131178000744 15.714285714285715  27.07432181345225 15.572916666666664  26.78483835005574 15.290178571428573  C 26.49535488665924 15.007440476190474  26.350613154960982 14.672619047619047  26.350613154960982 14.285714285714285  L 26.350613154960982 8.571428571428573  C 26.350613154960982 6.994047619047619  25.779264214046822 5.647321428571428  24.636566332218504 4.53125  C 23.493868450390192 3.415178571428572  22.11501300631736 2.857142857142856  20.5 2.857142857142856  C 18.88498699368265 2.857142857142856  17.506131549609808 3.415178571428572  16.363433667781493 4.53125  C 15.220735785953176 5.647321428571428  14.64938684503902 6.994047619047619  14.64938684503902 8.571428571428573  L 14.64938684503902 14.285714285714285  C 14.64938684503902 14.672619047619047  14.504645113340766 15.007440476190474  14.215161649944257 15.290178571428573  C 13.925678186547753 15.572916666666664  13.582868821999257 15.714285714285715  13.186733556298773 15.714285714285715  C 12.790598290598293 15.714285714285715  12.447788926049798 15.572916666666664  12.158305462653288 15.290178571428573  C 11.868821999256783 15.007440476190474  11.724080267558527 14.672619047619047  11.724080267558527 14.285714285714285  L 11.724080267558527 8.571428571428573  C 11.724080267558527 6.205357142857144  12.581103678929766 4.185267857142856  14.295150501672241 2.511160714285716  C 16.009197324414718 0.8370535714285721  18.077480490523968 0  20.5 0  C 22.922519509476032 0  24.990802675585282 0.8370535714285721  26.704849498327757 2.511160714285716  Z " fill-rule="nonzero" fill="#000000" stroke="none" transform="matrix(1 0 0 1 119 266 )" />
  </g>
</svg>