<?xml version="1.0" encoding="utf-8"?>
<svg version="1.1" xmlns:xlink="http://www.w3.org/1999/xlink" width="132px" height="133px" xmlns="http://www.w3.org/2000/svg">
  <g transform="matrix(1 0 0 1 -1387 -75 )">
    <path d="M 56.44375 80.13231118682567  C 59.88125 76.35604770017036  61.6 71.79935642627295  61.6 66.46223736513346  C 61.6 61.125118303993936  59.88125 56.56842703009654  56.44375 52.79216354344123  C 53.00625 49.01590005678591  48.858333333333334 47.12776831345827  44 47.12776831345827  C 39.141666666666666 47.12776831345827  34.993750000000006 49.01590005678591  31.556250000000002 52.79216354344123  C 28.11875 56.56842703009654  26.400000000000002 61.125118303993936  26.400000000000002 66.46223736513346  C 26.400000000000002 71.79935642627295  28.11875 76.35604770017036  31.556250000000002 80.13231118682567  C 34.993750000000006 83.90857467348097  39.141666666666666 85.79670641680863  44 85.79670641680863  C 48.858333333333334 85.79670641680863  53.00625 83.90857467348097  56.44375 80.13231118682567  Z M 111.821875 111.96621237932993  C 113.54062499999999 110.07808063600227  114.4 107.79973499905356  114.4 105.1311754684838  C 114.4 102.51296611773613  113.52916666666668 100.24720802574295  111.78750000000001 98.33390119250426  C 110.04583333333335 96.42059435926556  107.98333333333335 95.46394094264622  105.60000000000001 95.46394094264622  C 103.21666666666668 95.46394094264622  101.15416666666668 96.42059435926556  99.41250000000001 98.33390119250426  C 97.67083333333335 100.24720802574295  96.8 102.51296611773613  96.8 105.1311754684838  C 96.8 107.79973499905356  97.659375 110.07808063600227  99.378125 111.96621237932993  C 101.096875 113.85434412265758  103.17083333333333 114.7984099943214  105.60000000000001 114.7984099943214  C 108.02916666666667 114.7984099943214  110.103125 113.85434412265758  111.821875 111.96621237932993  Z M 111.821875 34.62833617262919  C 113.54062499999999 32.740204429301535  114.4 30.461858792352828  114.4 27.793299261783083  C 114.4 25.175089911035393  113.52916666666668 22.909331819042205  111.78750000000001 20.996024985803523  C 110.04583333333335 19.082718152564826  107.98333333333335 18.126064735945484  105.60000000000001 18.126064735945484  C 103.21666666666668 18.126064735945484  101.15416666666668 19.082718152564826  99.41250000000001 20.996024985803523  C 97.67083333333335 22.909331819042205  96.8 25.175089911035393  96.8 27.793299261783083  C 96.8 30.461858792352828  97.659375 32.740204429301535  99.378125 34.62833617262919  C 101.096875 36.51646791595685  103.17083333333333 37.46053378762067  105.60000000000001 37.46053378762067  C 108.02916666666667 37.46053378762067  110.103125 36.51646791595685  111.821875 34.62833617262919  Z M 87.51875 58.11669505962521  C 87.83958333333334 58.54467158811282  88 59.035585841378  88 59.58943781942079  L 88 73.56161272004543  C 88 74.06511451826613  87.83958333333334 74.55602877153132  87.51875 75.034355479841  C 87.19791666666669 75.51268218815066  86.83125 75.77702063221653  86.41875 75.82737081203861  L 75.7625 77.63997728563317  C 75.25833333333334 79.40223357940563  74.525 81.31554041264431  73.5625 83.37989778534924  C 75.12083333333334 85.79670641680863  77.18333333333334 88.69184175657769  79.75 92.06530380465644  C 80.07083333333334 92.61915578269921  80.23125 93.12265758091993  80.23125 93.57580919931857  C 80.23125 94.18001135718342  80.07083333333334 94.6583380654931  79.75 95.01078932424758  C 78.69583333333334 96.52129471890972  76.80520833333334 98.77446526594737  74.078125 101.77030096536059  C 71.35104166666667 104.76613666477381  69.55208333333333 106.26405451448042  68.68124999999999 106.26405451448042  C 68.17708333333334 106.26405451448042  67.69583333333334 106.08782888510316  67.2375 105.73537762634867  L 59.33125 98.93810335036912  C 57.63541666666667 99.89475676698845  55.87083333333334 100.67518455423055  54.0375 101.2793867120954  C 53.53333333333334 106.71720613287906  53.00625 110.61934506908953  52.45625 112.98580352072686  C 52.13541666666667 114.19420783645656  51.44791666666667 114.7984099943214  50.39375 114  L 37.60625 114  C 37.10208333333334 114.7984099943214  36.64375 114.60959681998864  36.23125 114.23197047132312  C 35.81875 113.85434412265758  35.58958333333334 113.41378004921447  35.54375 112.91027825099376  L 33.9625 101.35491198182851  C 32.40416666666667 100.8514101836078  30.68541666666667 100.07098239636571  28.80625 99.01362862010222  L 20.69375 105.73537762634867  C 20.37291666666667 106.08782888510316  19.914583333333336 106.26405451448042  19.31875 106.26405451448042  C 18.814583333333335 106.26405451448042  18.333333333333336 106.06265379519212  17.875 105.65985235661557  C 11.275 98.96327844028013  7.975 94.93526405451448  7.975 93.57580919931857  C 7.975 93.12265758091993  8.135416666666668 92.64433087261025  8.456249999999999 92.14082907438954  C 8.914583333333335 91.43592655688056  9.854166666666666 90.10164679159568  11.275 88.13798977853492  C 12.695833333333335 86.17433276547416  13.772916666666669 84.63865228090098  14.50625 83.53094832481545  C 13.452083333333334 81.31554041264431  12.65 79.25118303993942  12.1 77.33787620670074  L 1.6500000000000001 75.52526973310619  C 1.1916666666666669 75.47491955328411  0.8020833333333335 75.23575619912928  0.48125 74.8077796706417  C 0.16041666666666665 74.37980314215407  0 73.88888888888889  0 73.33503691084611  L 0 59.36286201022147  C 0 58.85936021200075  0.16041666666666665 58.36844595873556  0.48125 57.89011925042589  C 0.8020833333333335 57.411792542116224  1.16875 57.147454098050346  1.58125 57.09710391822828  L 12.2375 55.28449744463373  C 12.741666666666667 53.52224115086125  13.475 51.60893431762256  14.4375 49.54457694491766  C 12.879166666666666 47.12776831345827  10.816666666666666 44.23263297368918  8.25 40.85917092561045  C 7.929166666666667 40.30531894756765  7.76875 39.80181714934697  7.76875 39.348665530948324  C 7.76875 38.74446337308348  7.929166666666667 38.24096157486276  8.25 37.8381601362862  C 9.258333333333335 36.32765474162407  11.137500000000001 34.08707173954191  13.8875 31.116411130039744  C 16.6375 28.14575052053756  18.44791666666667 26.66042021578649  19.31875 26.66042021578649  C 19.822916666666668 26.66042021578649  20.304166666666667 26.83664584516373  20.7625 27.189097103918236  L 28.66875 33.98637137989778  C 30.227083333333336 33.080068143100505  31.99166666666667 32.27446526594738  33.9625 31.569562748438383  C 34.46666666666667 26.131743327654746  34.99375 22.254779481355275  35.54375 19.938671209540036  C 35.86458333333334 18.730266893810334  36.552083333333336 18.126064735945484  37.60625 19  L 50.39375 19  C 50.897916666666674 18.126064735945484  51.356249999999996 18.31487791027826  51.768750000000004 18.69250425894379  C 52.18125 19.070130607609304  52.41041666666667 19.510694681052424  52.45625 20.014196479273142  L 54.0375 31.569562748438383  C 55.59583333333334 32.07306454665908  57.31458333333334 32.85349233390119  59.19375 33.91084611016468  L 67.30625 27.189097103918236  C 67.67291666666668 26.83664584516373  68.13125000000001 26.66042021578649  68.68124999999999 26.66042021578649  C 69.18541666666667 26.66042021578649  69.66666666666667 26.861820935074753  70.125 27.264622373651342  C 76.72500000000001 33.961196289986745  80.02499999999999 37.98921067575241  80.02499999999999 39.348665530948324  C 80.02499999999999 39.751466969524884  79.86458333333333 40.22979367783454  79.54375 40.78364565587734  C 78.99374999999999 41.58924853303046  78.03125 42.94870338822637  76.65625 44.862010221465084  C 75.28125 46.77531705470376  74.25 48.28582244936589  73.5625 49.39352640545144  C 74.61666666666667 51.81033503691084  75.39583333333334 53.87469240961573  75.89999999999999 55.58659852356615  L 86.35 57.323679727427596  C 86.80833333333334 57.42438008707173  87.19791666666669 57.68871853113761  87.51875 58.11669505962521  Z M 121.75625 97.50312322544009  C 128.58541666666667 98.25837592277115  132.00000000000003 99.03880371001324  132 99.84440658716639  L 132 110.41794434980125  C 132.00000000000003 111.2235472269544  128.58541666666667 112.00397501419648  121.75625 112.75922771152754  C 121.20625 114.11868256672345  120.51875 115.42778724209728  119.69375 116.68654173764907  C 122.03125 122.37611205754305  123.2 125.85027446526594  123.2 127.10902896081771  C 123.2 127.31042968010601  123.10833333333333 127.48665530948324  122.925 127.63770584894945  C 117.33333333333334 131.21256861631647  114.49166666666667 133  114.4 133  C 114.03333333333336 133  112.97916666666669 131.81677077418132  111.2375 129.450312322544  C 109.49583333333334 127.0838538709067  108.30416666666667 125.37194775695627  107.66250000000001 124.31459398069279  C 106.74583333333334 124.41529434033693  106.05833333333334 124.465644520159  105.60000000000001 124.465644520159  C 105.14166666666668 124.465644520159  104.45416666666668 124.41529434033693  103.53750000000001 124.31459398069279  C 102.89583333333334 125.37194775695627  101.70416666666668 127.0838538709067  99.9625 129.450312322544  C 98.22083333333335 131.81677077418132  97.16666666666667 133  96.8 133  C 96.70833333333334 133  93.86666666666667 131.21256861631647  88.27499999999999 127.63770584894945  C 88.09166666666668 127.48665530948324  88 127.31042968010601  88 127.10902896081771  C 88 125.85027446526594  89.16875 122.37611205754305  91.50625 116.68654173764907  C 90.68125 115.42778724209728  89.99375 114.11868256672345  89.44375 112.75922771152754  C 82.61458333333334 112.00397501419648  79.2 111.2235472269544  79 110.41794434980125  L 79 99.84440658716639  C 79.2 99.03880371001324  82.61458333333334 98.25837592277115  89.44375 97.50312322544009  C 90.03958333333334 96.04296801060002  90.72708333333334 94.73386333522619  91.50625 93.57580919931857  C 89.16875 87.88623887942455  88 84.41207647170167  88 83.15332197614991  C 88 82.95192125686162  88.09166666666668 82.7756956274844  88.27499999999999 82.62464508801817  C 88.45833333333334 82.52394472837402  89.26041666666669 82.02044293015332  90.68125 81.11413969335605  C 92.10208333333334 80.20783645655878  93.45416666666668 79.35188339958356  94.7375 78.54628052243044  C 96.02083333333334 77.7406776452773  96.70833333333334 77.33787620670074  96.8 77.33787620670074  C 97.16666666666667 77.33787620670074  98.22083333333335 78.50851788756388  99.9625 80.84980124929017  C 101.70416666666668 83.19108461101646  102.89583333333334 84.89040318001136  103.53750000000001 85.94775695627486  C 104.45416666666668 85.84705659663071  105.14166666666668 85.79670641680863  105.60000000000001 85.79670641680863  C 106.05833333333334 85.79670641680863  106.74583333333334 85.84705659663071  107.66250000000001 85.94775695627486  C 110.00000000000001 82.37289418890781  112.10833333333336 79.55328411887184  113.9875 77.48892674616695  L 114.4 77.33787620670074  C 114.58333333333336 77.33787620670074  117.42500000000003 79.10013250047321  122.925 82.62464508801817  C 123.10833333333333 82.7756956274844  123.2 82.95192125686162  123.2 83.15332197614991  C 123.2 84.41207647170167  122.03125 87.88623887942455  119.69375 93.57580919931857  C 120.47291666666668 94.73386333522619  121.16041666666668 96.04296801060002  121.75625 97.50312322544009  Z M 121.75625 20.165247018739354  C 128.58541666666667 20.920499716070417  132.00000000000003 21.700927503312503  132 22.506530380465648  L 132 33.080068143100505  C 132.00000000000003 33.88567102025364  128.58541666666667 34.666098807495736  121.75625 35.4213515048268  C 121.20625 36.780806360022716  120.51875 38.08991103539655  119.69375 39.348665530948324  C 122.03125 45.03823585084232  123.2 48.512398258565206  123.2 49.771152754116976  C 123.2 49.97255347340525  123.10833333333333 50.148779102782505  122.925 50.29982964224872  C 117.33333333333334 53.87469240961573  114.49166666666667 55.66212379329926  114.4 55.66212379329926  C 114.03333333333336 55.66212379329926  112.97916666666669 54.47889456748059  111.2375 52.112436115843266  C 109.49583333333334 49.74597766420593  108.30416666666667 48.03407155025553  107.66250000000001 46.97671777399206  C 106.74583333333334 47.077418133636186  106.05833333333334 47.12776831345827  105.60000000000001 47.12776831345827  C 105.14166666666668 47.12776831345827  104.45416666666668 47.077418133636186  103.53750000000001 46.97671777399206  C 102.89583333333334 48.03407155025553  101.70416666666668 49.74597766420593  99.9625 52.112436115843266  C 98.22083333333335 54.47889456748059  97.16666666666667 55.66212379329926  96.8 55.66212379329926  C 96.70833333333334 55.66212379329926  93.86666666666667 53.87469240961573  88.27499999999999 50.29982964224872  C 88.09166666666668 50.148779102782505  88 49.97255347340525  88 49.771152754116976  C 88 48.512398258565206  89.16875 45.03823585084232  91.50625 39.348665530948324  C 90.68125 38.08991103539655  89.99375 36.780806360022716  89.44375 35.4213515048268  C 82.61458333333334 34.666098807495736  79.2 33.88567102025364  79 33.080068143100505  L 79 22.506530380465648  C 79.2 21.700927503312503  82.61458333333334 20.920499716070417  89.44375 20.165247018739354  C 90.03958333333334 18.705091803899293  90.72708333333334 17.395987128525448  91.50625 16.23793299261783  C 89.16875 10.548362672723819  88 7.074200265000933  88 5.815445769449181  C 88 5.614045050160888  88.09166666666668 5.43781942078365  88.27499999999999 5.286768881317437  C 88.45833333333334 5.186068521673276  89.26041666666669 4.682566723452587  90.68125 3.7762634866553126  C 92.10208333333334 2.869960249858037  93.45416666666668 2.0140071928828136  94.7375 1.2084043157297  C 96.02083333333334 0.4028014385765568  96.70833333333334 0  96.8 0  C 97.16666666666667 0  98.22083333333335 1.1706416808631395  99.9625 3.511925042589433  C 101.70416666666668 5.853208404315727  102.89583333333334 7.552526973310625  103.53750000000001 8.609880749574112  C 104.45416666666668 8.50918038992995  105.14166666666668 8.4588302101079  105.60000000000001 8.4588302101079  C 106.05833333333334 8.4588302101079  106.74583333333334 8.50918038992995  107.66250000000001 8.609880749574112  C 110.00000000000001 5.035017982207064  112.10833333333336 2.2154079121711066  113.9875 0.1510505394662125  L 114.4 0  C 114.58333333333336 0  117.42500000000003 1.7622562937724693  122.925 5.286768881317437  C 123.10833333333333 5.43781942078365  123.2 5.614045050160888  123.2 5.815445769449181  C 123.2 7.074200265000933  122.03125 10.548362672723819  119.69375 16.23793299261783  C 120.47291666666668 17.395987128525448  121.16041666666668 18.705091803899293  121.75625 20.165247018739354  Z " fill-rule="nonzero" fill="#000000" stroke="none" transform="matrix(1 0 0 1 1387 75 )" />
  </g>
</svg>