<?xml version="1.0" encoding="utf-8"?>
<svg version="1.1" xmlns:xlink="http://www.w3.org/1999/xlink" width="109px" height="152px" xmlns="http://www.w3.org/2000/svg">
  <g transform="matrix(1 0 0 1 -850 -1523 )">
    <path d="M 105.40451388888889 69.3203125  C 107.80150462962965 71.20052083333333  109 73.42708333333333  109 76  C 109 78.57291666666666  107.80150462962965 80.79947916666666  105.40451388888889 82.6796875  L 20.62673611111111 149.1796875  C 18.22974537037037 151.05989583333334  15.391203703703706 152  12.11111111111111 152  C 8.831018518518519 152  5.992476851851852 151.05989583333334  3.595486111111111 149.1796875  C 1.1984953703703705 147.29947916666666  0 145.07291666666666  0 142.5  L 0 9.5  C 0 6.927083333333311  1.1984953703703705 4.700520833333311  3.595486111111111 2.8203125  C 5.992476851851852 0.9401041666666554  8.831018518518519 0  12.11111111111111 0  C 15.391203703703706 0  18.22974537037037 0.9401041666666554  20.62673611111111 2.8203125  L 105.40451388888889 69.3203125  Z " fill-rule="nonzero" fill="#000000" stroke="none" transform="matrix(1 0 0 1 850 1523 )" />
  </g>
</svg>