<?xml version="1.0" encoding="utf-8"?>
<svg version="1.1" xmlns:xlink="http://www.w3.org/1999/xlink" width="128px" height="111px" xmlns="http://www.w3.org/2000/svg">
  <g transform="matrix(1 0 0 1 -58 -75 )">
    <path d="M 124.21428571428571 50.158125000000005  C 126.73809523809526 56.35562499999999  128 64.05624999999999  128 73.25999999999999  C 128 80.93749999999999  124.97619047619048 91.366875  118.92857142857143 104.548125  C 118.7857142857143 104.871875  118.5357142857143 105.42687500000001  118.17857142857143 106.213125  C 117.82142857142858 106.99937499999999  117.50000000000001 107.693125  117.21428571428571 108.294375  C 116.92857142857144 108.89562500000001  116.61904761904763 109.404375  116.28571428571429 109.820625  C 115.71428571428571 110.606875  115.04761904761905 111  114.28571428571429 111  C 113.57142857142857 111  113.01190476190477 110.76875  112.60714285714286 110.30625  C 112.20238095238096 109.84374999999999  112 109.265625  112 108.571875  C 112 108.155625  112.05952380952382 107.5428125  112.17857142857143 106.7334375  C 112.29761904761905 105.92406249999999  112.35714285714286 105.380625  112.35714285714286 105.103125  C 112.5952380952381 101.95812500000001  112.71428571428574 99.11375  112.71428571428571 96.57  C 112.71428571428574 91.89875  112.29761904761907 87.71312499999999  111.46428571428571 84.013125  C 110.6309523809524 80.31312499999999  109.47619047619048 77.1103125  108 74.4046875  C 106.52380952380953 71.69906250000001  104.61904761904762 69.36343749999999  102.28571428571429 67.3978125  C 99.95238095238096 65.4321875  97.44047619047619 63.824999999999996  94.75 62.576249999999995  C 92.05952380952382 61.3275  88.89285714285714 60.34468749999999  85.25 59.62781249999999  C 81.60714285714286 58.9109375  77.94047619047619 58.41375  74.25 58.13624999999999  C 70.55952380952381 57.85875  66.38095238095238 57.72  61.714285714285715 57  L 46 57  L 46 75.47999999999999  C 45.714285714285715 76.68249999999999  45.261904761904766 77.723125  44.357142857142854 78.601875  C 43.452380952380956 79.48062499999999  42.38095238095239 79.92  41.142857142857146 79.92  C 39.90476190476191 79.92  38.833333333333336 79.48062499999999  37.92857142857143 78.601875  L 1.3571428571428572 43.081875000000004  C 0.4523809523809524 42.20312499999999  0 41.16249999999999  0 39.96  C 0 38.75749999999999  0.4523809523809524 37.716874999999995  1.3571428571428572 36.838125000000005  L 37.92857142857143 1.3181249999999967  C 38.833333333333336 0.43937499999999474  39.90476190476191 0  41.142857142857146 0  C 42.38095238095239 0  43.452380952380956 0.43937499999999474  44.357142857142854 1.3181249999999967  C 45.261904761904766 2.196874999999986  45.714285714285715 3.2374999999999883  46 4.440000000000004  L 46 23  L 61.714285714285715 23  C 95.66666666666667 22.199999999999996  116.5 31.519374999999997  124.21428571428571 50.158125000000005  Z " fill-rule="nonzero" fill="#000000" stroke="none" transform="matrix(1 0 0 1 58 75 )" />
  </g>
</svg>