<?xml version="1.0" encoding="utf-8"?>
<svg version="1.1" xmlns:xlink="http://www.w3.org/1999/xlink" width="62px" height="71px" xmlns="http://www.w3.org/2000/svg">
  <g transform="matrix(1 0 0 1 -147 -108 )">
    <path d="M 61.58828125 51.331705729166664  C 61.86276041666667 53.658311631944436  62 56.13129340277778  62 58.75065104166667  C 62 62.10959201388889  60.99088541666667 64.99088541666667  58.97265625 67.39453125  C 56.954427083333336 69.79817708333333  54.52447916666667 71  51.682812500000004 71  L 10.317187500000001 71  C 7.475520833333333 71  5.045572916666667 69.79817708333333  3.0273437500000004 67.39453125  C 1.0091145833333337 64.99088541666667  0 62.10959201388889  0 58.75065104166667  C 0 56.13129340277778  0.13723958333333366 53.658311631944436  0.41171875000000036 51.331705729166664  C 0.6861979166666671 49.00509982638888  1.194791666666667 46.6630859375  1.9375000000000004 44.3056640625  C 2.680208333333334 41.9482421875  3.6247395833333336 39.92979600694444  4.7710937499999995 38.250325520833336  C 5.917447916666667 36.570855034722214  7.4351562499999995 35.19954427083333  9.32421875 34.13639322916667  C 11.21328125 33.0732421875  13.384895833333335 32.54166666666667  15.8390625 32.54166666666667  C 20.069270833333334 36.48611111111111  25.12291666666667 38.458333333333336  31 38.458333333333336  C 36.877083333333346 38.458333333333336  41.93072916666667 36.48611111111111  46.160937499999996 32.54166666666667  C 48.61510416666667 32.54166666666667  50.78671875 33.0732421875  52.67578125 34.13639322916667  C 54.56484375 35.19954427083333  56.08255208333334 36.570855034722214  57.22890625 38.250325520833336  C 58.37526041666667 39.92979600694444  59.31979166666667 41.9482421875  60.0625 44.3056640625  C 60.80520833333334 46.6630859375  61.313802083333336 49.00509982638888  61.58828125 51.331705729166664  Z M 44.15078125 5.2001953125  C 47.78359375 8.6669921875  49.6 12.85026041666667  49.6 17.75  C 49.6 22.649739583333332  47.78359375 26.8330078125  44.15078125 30.2998046875  C 40.51796875 33.7666015625  36.134375 35.5  31 35.5  C 25.865624999999998 35.5  21.482031250000002 33.7666015625  17.849218750000002 30.2998046875  C 14.21640625 26.8330078125  12.4 22.649739583333332  12.4 17.75  C 12.4 12.85026041666667  14.21640625 8.6669921875  17.849218750000002 5.2001953125  C 21.482031250000002 1.7333984375  25.865624999999998 0  31 0  C 36.134375 0  40.51796875 1.7333984375  44.15078125 5.2001953125  Z " fill-rule="nonzero" fill="#000000" stroke="none" transform="matrix(1 0 0 1 147 108 )" />
  </g>
</svg>