<?xml version="1.0" encoding="utf-8"?>
<svg version="1.1" xmlns:xlink="http://www.w3.org/1999/xlink" width="9px" height="8px" xmlns="http://www.w3.org/2000/svg">
  <g transform="matrix(1 0 0 1 -145 -191 )">
    <path d="M 149.5 191  C 152.02 191  154 192.76  154 195  C 154 197.24  152.02 199  149.5 199  C 146.98 199  145 197.24  145 195  C 145 192.76  146.98 191  149.5 191  Z " fill-rule="nonzero" fill="#000000" stroke="none" />
    <path d="M 149.5 191.5  C 151.74 191.5  153.5 193.04  153.5 195  C 153.5 196.96  151.74 198.5  149.5 198.5  C 147.26 198.5  145.5 196.96  145.5 195  C 145.5 193.04  147.26 191.5  149.5 191.5  Z " stroke-width="1" stroke="#797979" fill="none" />
  </g>
</svg>