<?xml version="1.0" encoding="utf-8"?>
<svg version="1.1" xmlns:xlink="http://www.w3.org/1999/xlink" width="32px" height="30px" xmlns="http://www.w3.org/2000/svg">
  <g transform="matrix(1 0 0 1 -731 -9 )">
    <path d="M 13.683333333333334 18.07495741056218  C 14.516666666666667 17.223168654173765  14.933333333333334 16.195343554798413  14.933333333333334 14.991482112436117  C 14.933333333333334 13.78762067007382  14.516666666666667 12.759795570698467  13.683333333333334 11.90800681431005  C 12.85 11.056218057921633  11.844444444444445 10.630323679727429  10.666666666666666 10.630323679727429  C 9.488888888888889 10.630323679727429  8.483333333333334 11.056218057921633  7.65 11.90800681431005  C 6.816666666666666 12.759795570698467  6.4 13.78762067007382  6.4 14.991482112436117  C 6.4 16.195343554798413  6.816666666666666 17.223168654173765  7.65 18.07495741056218  C 8.483333333333334 18.926746166950593  9.488888888888889 19.352640545144805  10.666666666666666 19.352640545144805  C 11.844444444444445 19.352640545144805  12.85 18.926746166950593  13.683333333333334 18.07495741056218  Z M 27.108333333333334 25.255536626916527  C 27.525 24.82964224872232  27.733333333333334 24.315729699034637  27.733333333333334 23.71379897785349  C 27.733333333333334 23.123225440090856  27.522222222222226 22.612152186257806  27.1 22.180579216354346  C 26.67777777777778 21.74900624645088  26.17777777777778 21.533219761499147  25.6 21.533219761499147  C 25.022222222222226 21.533219761499147  24.522222222222226 21.74900624645088  24.1 22.180579216354346  C 23.67777777777778 22.612152186257806  23.466666666666665 23.123225440090856  23.466666666666665 23.71379897785349  C 23.466666666666665 24.315729699034637  23.675 24.82964224872232  24.091666666666665 25.255536626916527  C 24.508333333333333 25.68143100511073  25.011111111111113 25.894378194207835  25.6 25.894378194207835  C 26.18888888888889 25.894378194207835  26.691666666666666 25.68143100511073  27.108333333333334 25.255536626916527  Z M 27.108333333333334 7.810902896081773  C 27.525 7.385008517887565  27.733333333333334 6.871095968199886  27.733333333333334 6.269165247018741  C 27.733333333333334 5.678591709256104  27.522222222222226 5.167518455423053  27.1 4.735945485519592  C 26.67777777777778 4.3043725156161265  26.17777777777778 4.088586030664395  25.6 4.088586030664395  C 25.022222222222226 4.088586030664395  24.522222222222226 4.3043725156161265  24.1 4.735945485519592  C 23.67777777777778 5.167518455423053  23.466666666666665 5.678591709256104  23.466666666666665 6.269165247018741  C 23.466666666666665 6.871095968199886  23.675 7.385008517887565  24.091666666666665 7.810902896081773  C 24.508333333333333 8.23679727427598  25.011111111111113 8.449744463373083  25.6 8.449744463373083  C 26.18888888888889 8.449744463373083  26.691666666666666 8.23679727427598  27.108333333333334 7.810902896081773  Z M 21.216666666666665 13.109028960817716  C 21.294444444444444 13.205565019875072  21.333333333333332 13.316297558205564  21.333333333333332 13.4412265758092  L 21.333333333333332 16.592844974446336  C 21.333333333333332 16.70641680863146  21.294444444444444 16.81714934696195  21.216666666666665 16.92504258943782  C 21.138888888888893 17.032935831913683  21.05 17.092561044860872  20.95 17.103918228279387  L 18.366666666666667 17.512776831345825  C 18.244444444444447 17.910278250993752  18.066666666666666 18.341851220897215  17.833333333333332 18.80749574105622  C 18.211111111111112 19.352640545144805  18.711111111111112 20.005678591709252  19.333333333333332 20.766609880749574  C 19.41111111111111 20.891538898353204  19.45 21.00511073253833  19.45 21.10732538330494  C 19.45 21.243611584327088  19.41111111111111 21.351504826802955  19.333333333333332 21.43100511073254  C 19.07777777777778 21.771720613287904  18.619444444444447 22.279954571266323  17.958333333333332 22.955706984667803  C 17.297222222222224 23.631459398069282  16.86111111111111 23.96933560477002  16.65 23.96933560477002  C 16.52777777777778 23.96933560477002  16.41111111111111 23.929585462805225  16.3 23.850085178875638  L 14.383333333333333 22.31686541737649  C 13.972222222222223 22.532651902328222  13.544444444444446 22.708688245315162  13.1 22.84497444633731  C 12.97777777777778 24.07155025553663  12.85 24.951731970471325  12.716666666666667 25.485519591141397  C 12.63888888888889 25.75809199318569  12.472222222222223 25.894378194207835  12.216666666666667 25.894378194207835  L 9.116666666666667 25.894378194207835  C 8.994444444444445 25.894378194207835  8.883333333333333 25.851788756388416  8.783333333333333 25.766609880749577  C 8.683333333333334 25.68143100511073  8.627777777777778 25.582055650198754  8.616666666666667 25.468483816013627  L 8.233333333333333 22.862010221465077  C 7.855555555555556 22.748438387279954  7.438888888888889 22.572402044293018  6.983333333333333 22.33390119250426  L 5.016666666666667 23.850085178875638  C 4.938888888888889 23.929585462805225  4.827777777777778 23.96933560477002  4.683333333333334 23.96933560477002  C 4.561111111111112 23.96933560477002  4.444444444444445 23.92390687109597  4.333333333333333 23.83304940374787  C 2.7333333333333334 22.322544009085746  1.9333333333333333 21.41396933560477  1.9333333333333333 21.10732538330494  C 1.9333333333333333 21.00511073253833  1.9722222222222223 20.897217490062463  2.05 20.783645655877343  C 2.1611111111111114 20.62464508801817  2.388888888888889 20.323679727427596  2.7333333333333334 19.88074957410562  C 3.077777777777778 19.437819420783644  3.3388888888888895 19.09142532651902  3.5166666666666666 18.841567291311755  C 3.2611111111111115 18.341851220897215  3.066666666666667 17.876206700738216  2.933333333333333 17.444633730834752  L 0.4 17.035775127768314  C 0.2888888888888889 17.0244179443498  0.19444444444444448 16.97047132311187  0.11666666666666667 16.873935264054516  C 0.03888888888888888 16.77739920499716  0 16.666666666666668  0 16.54173764906303  L 0 13.390119250425895  C 0 13.27654741624077  0.03888888888888888 13.165814877910279  0.11666666666666667 13.057921635434411  C 0.19444444444444448 12.950028392958547  0.2833333333333333 12.890403180011356  0.38333333333333336 12.879045996592845  L 2.966666666666667 12.470187393526405  C 3.088888888888889 12.072685973878476  3.2666666666666666 11.641113003975015  3.5 11.175468483816012  C 3.1222222222222222 10.630323679727429  2.6222222222222222 9.977285633162973  2 9.216354344122658  C 1.9222222222222223 9.091425326519019  1.8833333333333333 8.977853492333901  1.8833333333333333 8.87563884156729  C 1.8833333333333333 8.739352640545144  1.9222222222222223 8.625780806360021  2 8.534923339011925  C 2.244444444444445 8.194207836456558  2.7 7.688813174332763  3.3666666666666667 7.018739352640544  C 4.033333333333333 6.348665530948322  4.472222222222223 6.0136286201022155  4.683333333333334 6.0136286201022155  C 4.805555555555556 6.0136286201022155  4.9222222222222225 6.053378762067006  5.033333333333333 6.132879045996594  L 6.95 7.66609880749574  C 7.327777777777778 7.46166950596252  7.755555555555556 7.279954571266326  8.233333333333333 7.120954003407154  C 8.355555555555556 5.894378194207838  8.483333333333333 5.019875070982392  8.616666666666667 4.497444633730835  C 8.694444444444446 4.2248722316865415  8.861111111111112 4.088586030664395  9.116666666666667 4.088586030664395  L 12.216666666666667 4.088586030664395  C 12.33888888888889 4.088586030664395  12.45 4.131175468483818  12.55 4.216354344122659  C 12.65 4.301533219761497  12.705555555555556 4.400908574673479  12.716666666666667 4.514480408858603  L 13.1 7.120954003407154  C 13.47777777777778 7.234525837592275  13.894444444444446 7.410562180579215  14.35 7.649063032367972  L 16.316666666666666 6.132879045996594  C 16.40555555555556 6.053378762067006  16.51666666666667 6.0136286201022155  16.65 6.0136286201022155  C 16.772222222222222 6.0136286201022155  16.88888888888889 6.059057353776261  17 6.149914821124362  C 18.6 7.660420215786483  19.4 8.568994889267461  19.4 8.87563884156729  C 19.4 8.966496308915387  19.36111111111111 9.074389551391251  19.283333333333335 9.19931856899489  C 19.15 9.38103350369108  18.916666666666668 9.687677455990912  18.583333333333332 10.119250425894379  C 18.25 10.550823395797842  18 10.891538898353208  17.833333333333332 11.141396933560475  C 18.088888888888892 11.686541737649062  18.27777777777778 12.152186257808061  18.4 12.538330494037478  L 20.933333333333334 12.93015332197615  C 21.044444444444444 12.952867688813171  21.138888888888893 13.012492901760362  21.216666666666665 13.109028960817716  Z M 29.516666666666666 21.993185689948895  C 31.172222222222224 22.163543441226576  32.00000000000001 22.339579784213512  32 22.52129471890971  L 32 24.906303236797275  C 32.00000000000001 25.08801817149347  31.172222222222224 25.26405451448041  29.516666666666666 25.43441226575809  C 29.383333333333333 25.74105621805792  29.216666666666665 26.036342986939236  29.016666666666666 26.320272572402043  C 29.583333333333332 27.603634298693922  29.866666666666667 28.387279954571266  29.866666666666667 28.67120954003407  C 29.866666666666667 28.71663827370812  29.844444444444445 28.756388415672912  29.8 28.79045996592845  C 28.444444444444446 29.596819988642814  27.755555555555556 30  27.733333333333334 30  C 27.64444444444445 30  27.388888888888893 29.733106189664962  26.966666666666665 29.19931856899489  C 26.544444444444444 28.665530948324818  26.255555555555556 28.2793867120954  26.1 28.040885860306645  C 25.87777777777778 28.063600227143667  25.711111111111112 28.07495741056218  25.6 28.07495741056218  C 25.48888888888889 28.07495741056218  25.322222222222226 28.063600227143667  25.1 28.040885860306645  C 24.944444444444446 28.2793867120954  24.65555555555556 28.665530948324818  24.233333333333334 29.19931856899489  C 23.811111111111114 29.733106189664962  23.555555555555557 30  23.466666666666665 30  C 23.444444444444446 30  22.755555555555556 29.596819988642814  21.4 28.79045996592845  C 21.355555555555558 28.756388415672912  21.333333333333332 28.71663827370812  21.333333333333332 28.67120954003407  C 21.333333333333332 28.387279954571266  21.616666666666667 27.603634298693922  22.183333333333334 26.320272572402043  C 21.983333333333334 26.036342986939236  21.816666666666666 25.74105621805792  21.683333333333334 25.43441226575809  C 20.02777777777778 25.26405451448041  19.2 25.08801817149347  19.2 24.906303236797275  L 19.2 22.52129471890971  C 19.2 22.339579784213512  20.02777777777778 22.163543441226576  21.683333333333334 21.993185689948895  C 21.82777777777778 21.663827370812033  21.994444444444447 21.368540601930718  22.183333333333334 21.10732538330494  C 21.616666666666667 19.82396365701306  21.333333333333332 19.040318001135716  21.333333333333332 18.756388415672912  C 21.333333333333332 18.71095968199886  21.355555555555558 18.671209540034074  21.4 18.637137989778537  C 21.444444444444446 18.61442362294151  21.638888888888893 18.50085178875639  21.983333333333334 18.296422487223168  C 22.32777777777778 18.09199318568995  22.65555555555556 17.898921067575237  22.966666666666665 17.717206132879046  C 23.27777777777778 17.53549119818285  23.444444444444446 17.444633730834752  23.466666666666665 17.444633730834752  C 23.555555555555557 17.444633730834752  23.811111111111114 17.70868824531516  24.233333333333334 18.23679727427598  C 24.65555555555556 18.764906303236796  24.944444444444446 19.148211243611584  25.1 19.38671209540034  C 25.322222222222226 19.363997728563316  25.48888888888889 19.352640545144805  25.6 19.352640545144805  C 25.711111111111112 19.352640545144805  25.87777777777778 19.363997728563316  26.1 19.38671209540034  C 26.66666666666667 18.58035207268597  27.177777777777784 17.944349801249288  27.633333333333333 17.47870528109029  L 27.733333333333334 17.444633730834752  C 27.777777777777782 17.444633730834752  28.466666666666672 17.84213515048268  29.8 18.637137989778537  C 29.844444444444445 18.671209540034074  29.866666666666667 18.71095968199886  29.866666666666667 18.756388415672912  C 29.866666666666667 19.040318001135716  29.583333333333332 19.82396365701306  29.016666666666666 21.10732538330494  C 29.20555555555556 21.368540601930718  29.372222222222224 21.663827370812033  29.516666666666666 21.993185689948895  Z M 29.516666666666666 4.54855195911414  C 31.172222222222224 4.718909710391824  32.00000000000001 4.89494605337876  32 5.076660988074958  L 32 7.46166950596252  C 32.00000000000001 7.643384440658715  31.172222222222224 7.819420783645655  29.516666666666666 7.989778534923339  C 29.383333333333333 8.296422487223168  29.216666666666665 8.591709256104483  29.016666666666666 8.87563884156729  C 29.583333333333332 10.15900056785917  29.866666666666667 10.942646223736514  29.866666666666667 11.226575809199318  C 29.866666666666667 11.272004542873365  29.844444444444445 11.311754684838158  29.8 11.345826235093696  C 28.444444444444446 12.152186257808061  27.755555555555556 12.555366269165248  27.733333333333334 12.555366269165248  C 27.64444444444445 12.555366269165248  27.388888888888893 12.288472458830208  26.966666666666665 11.754684838160136  C 26.544444444444444 11.22089721749006  26.255555555555556 10.834752981260646  26.1 10.596252129471893  C 25.87777777777778 10.618966496308914  25.711111111111112 10.630323679727429  25.6 10.630323679727429  C 25.48888888888889 10.630323679727429  25.322222222222226 10.618966496308914  25.1 10.596252129471893  C 24.944444444444446 10.834752981260646  24.65555555555556 11.22089721749006  24.233333333333334 11.754684838160136  C 23.811111111111114 12.288472458830208  23.555555555555557 12.555366269165248  23.466666666666665 12.555366269165248  C 23.444444444444446 12.555366269165248  22.755555555555556 12.152186257808061  21.4 11.345826235093696  C 21.355555555555558 11.311754684838158  21.333333333333332 11.272004542873365  21.333333333333332 11.226575809199318  C 21.333333333333332 10.942646223736514  21.616666666666667 10.15900056785917  22.183333333333334 8.87563884156729  C 21.983333333333334 8.591709256104483  21.816666666666666 8.296422487223168  21.683333333333334 7.989778534923339  C 20.02777777777778 7.819420783645655  19.2 7.643384440658715  19.2 7.46166950596252  L 19.2 5.076660988074958  C 19.2 4.89494605337876  20.02777777777778 4.718909710391824  21.683333333333334 4.54855195911414  C 21.82777777777778 4.219193639977284  21.994444444444447 3.9239068710959657  22.183333333333334 3.662691652470187  C 21.616666666666667 2.379329926178305  21.333333333333332 1.5956842703009622  21.333333333333332 1.3117546848381612  C 21.333333333333332 1.26632595116411  21.355555555555558 1.2265758091993195  21.4 1.1925042589437829  C 21.444444444444446 1.169789892106754  21.638888888888893 1.0562180579216363  21.983333333333334 0.8517887563884163  C 22.32777777777778 0.6473594548551964  22.65555555555556 0.45428733674048427  22.966666666666665 0.2725724020442932  C 23.27777777777778 0.09085746734809552  23.444444444444446 0  23.466666666666665 0  C 23.555555555555557 0  23.811111111111114 0.2640545144804074  24.233333333333334 0.7921635434412255  C 24.65555555555556 1.3202725724020437  24.944444444444446 1.7035775127768327  25.1 1.9420783645655892  C 25.322222222222226 1.9193639977285604  25.48888888888889 1.9080068143100526  25.6 1.9080068143100526  C 25.711111111111112 1.9080068143100526  25.87777777777778 1.9193639977285604  26.1 1.9420783645655892  C 26.66666666666667 1.1357183418512173  27.177777777777784 0.49971607041453536  27.633333333333333 0.03407155025553665  L 27.733333333333334 0  C 27.777777777777782 0  28.466666666666672 0.3975014196479254  29.8 1.1925042589437829  C 29.844444444444445 1.2265758091993195  29.866666666666667 1.26632595116411  29.866666666666667 1.3117546848381612  C 29.866666666666667 1.5956842703009622  29.583333333333332 2.379329926178305  29.016666666666666 3.662691652470187  C 29.20555555555556 3.9239068710959657  29.372222222222224 4.219193639977284  29.516666666666666 4.54855195911414  Z " fill-rule="nonzero" fill="#000000" stroke="none" transform="matrix(1 0 0 1 731 9 )" />
  </g>
</svg>