<?xml version="1.0" encoding="utf-8"?>
<svg version="1.1" xmlns:xlink="http://www.w3.org/1999/xlink" width="22px" height="21px" xmlns="http://www.w3.org/2000/svg">
  <g transform="matrix(1 0 0 1 -365 -487 )">
    <path d="M 16.399739583333336 12.7763671875  C 16.447482638888893 12.8173828125  16.471354166666664 12.869791666666664  16.471354166666664 12.933593750000002  L 16.471354166666664 14.423828124999998  C 16.471354166666664 14.879557291666664  16.297092013888893 15.285156249999998  15.948567708333334 15.640625000000002  C 15.60004340277778 15.99609375  15.151258680555557 16.271809895833332  14.602213541666666 16.4677734375  C 14.05316840277778 16.663736979166668  13.489800347222223 16.811848958333336  12.912109375 16.912109375  C 12.33441840277778 17.012369791666668  11.7734375 17.0625  11.229166666666666 17.0625  C 9.27170138888889 17.0625  7.6365017361111125 16.429036458333336  6.323567708333333 15.162109374999998  C 5.010633680555556 13.895182291666664  4.354166666666666 12.318359375000002  4.354166666666666 10.431640625  C 4.354166666666666 8.581380208333334  5.003472222222223 7.036458333333333  6.302083333333333 5.796874999999999  C 7.6006944444444455 4.557291666666666  9.219184027777779 3.9375  11.157552083333334 3.9375  C 11.48220486111111 3.9375  11.842664930555557 3.9580078125  12.238932291666666 3.9990234375  C 12.63519965277778 4.0400390625  13.079210069444446 4.1220703125  13.570963541666666 4.2451171875  C 14.062717013888891 4.3681640625  14.50434027777778 4.523111979166666  14.895833333333334 4.709960937499999  C 15.287326388888891 4.896809895833332  15.616753472222225 5.154296875000001  15.884114583333334 5.482421875000001  C 16.151475694444446 5.810546875000001  16.28515625 6.179687500000001  16.28515625 6.589843750000001  L 16.28515625 8.080078125  C 16.28515625 8.22591145833333  16.20876736111111 8.298828125  16.055989583333336 8.298828125  L 14.365885416666666 8.298828125  C 14.213107638888891 8.298828125  14.136718750000002 8.22591145833333  14.13671875 8.080078125  L 14.13671875 7.123046875000001  C 14.136718750000002 6.731119791666666  13.82400173611111 6.423502604166666  13.198567708333334 6.200195312500001  C 12.573133680555557 5.976888020833331  11.916666666666666 5.865234375  11.229166666666666 5.865234375  C 9.892361111111112 5.865234375  8.801432291666668 6.282226562500001  7.956380208333333 7.1162109375  C 7.111328125 7.950195312499999  6.688802083333333 9.032552083333334  6.688802083333333 10.36328125  C 6.688802083333333 11.739583333333332  7.125651041666667 12.876627604166668  7.999348958333333 13.774414062500002  C 8.873046875 14.672200520833332  9.987847222222223 15.121093749999998  11.34375 15.121093749999998  C 11.993055555555557 15.121093749999998  12.651909722222223 15.01171875  13.3203125 14.792968749999998  C 13.98871527777778 14.574218750000002  14.322916666666666 14.2734375  14.322916666666666 13.890624999999998  L 14.322916666666666 12.933593750000002  C 14.322916666666666 12.869791666666664  14.344401041666666 12.8173828125  14.387369791666666 12.7763671875  C 14.430338541666666 12.7353515625  14.48046875 12.71484375  14.537760416666666 12.71484375  L 16.2421875 12.71484375  C 16.299479166666664 12.71484375  16.35199652777778 12.7353515625  16.399739583333336 12.7763671875  Z M 14.559244791666666 2.447265625000001  C 13.427734375 1.9824218749999991  12.241319444444446 1.7500000000000009  11 1.7500000000000009  C 9.758680555555555 1.7500000000000009  8.572265625 1.9824218749999991  7.440755208333333 2.447265625000001  C 6.309244791666667 2.912109375  5.335286458333334 3.534179687500001  4.518880208333334 4.313476562500001  C 3.7024739583333335 5.092773437500001  3.05078125 6.022460937499999  2.563802083333333 7.102539062500001  C 2.076822916666667 8.1826171875  1.8333333333333333 9.315104166666666  1.8333333333333333 10.5  C 1.8333333333333333 11.684895833333334  2.076822916666667 12.8173828125  2.563802083333333 13.897460937500002  C 3.05078125 14.977539062499998  3.7024739583333335 15.9072265625  4.518880208333334 16.6865234375  C 5.335286458333334 17.4658203125  6.309244791666667 18.087890625  7.440755208333333 18.552734375  C 8.572265625 19.017578125  9.758680555555555 19.25  11 19.25  C 12.241319444444446 19.25  13.427734375 19.017578125  14.559244791666666 18.552734375  C 15.690755208333334 18.087890625  16.664713541666664 17.4658203125  17.481119791666664 16.6865234375  C 18.297526041666664 15.9072265625  18.94921875 14.977539062499998  19.436197916666664 13.897460937500002  C 19.923177083333336 12.8173828125  20.166666666666664 11.684895833333334  20.166666666666664 10.5  C 20.166666666666664 9.315104166666666  19.923177083333336 8.1826171875  19.436197916666664 7.102539062500001  C 18.94921875 6.022460937499999  18.297526041666664 5.092773437500001  17.481119791666664 4.313476562500001  C 16.664713541666664 3.534179687500001  15.690755208333334 2.912109375  14.559244791666666 2.447265625000001  Z M 20.524739583333336 5.2294921875  C 21.508246527777775 6.838216145833331  22 8.59505208333333  22 10.5  C 22 12.404947916666668  21.508246527777775 14.161783854166664  20.524739583333336 15.7705078125  C 19.541232638888893 17.379231770833332  18.20681423611111 18.652994791666668  16.521484375 19.591796875  C 14.836154513888891 20.530598958333336  12.995659722222223 21  11 21  C 9.004340277777779 21  7.163845486111112 20.530598958333336  5.478515625 19.591796875  C 3.7931857638888893 18.652994791666668  2.4587673611111116 17.379231770833332  1.4752604166666667 15.7705078125  C 0.49175347222222215 14.161783854166664  0 12.404947916666668  0 10.5  C 0 8.59505208333333  0.49175347222222215 6.838216145833331  1.4752604166666667 5.2294921875  C 2.4587673611111116 3.6207682291666665  3.7931857638888893 2.3470052083333313  5.478515625 1.4082031249999991  C 7.163845486111112 0.46940104166666485  9.004340277777779 0  11 0  C 12.995659722222223 0  14.836154513888891 0.46940104166666485  16.521484375 1.4082031249999991  C 18.20681423611111 2.3470052083333313  19.541232638888893 3.6207682291666665  20.524739583333336 5.2294921875  Z " fill-rule="nonzero" fill="#000000" stroke="none" transform="matrix(1 0 0 1 365 487 )" />
  </g>
</svg>