<?xml version="1.0" encoding="utf-8"?>
<svg version="1.1" xmlns:xlink="http://www.w3.org/1999/xlink" width="23px" height="30px" xmlns="http://www.w3.org/2000/svg">
  <g transform="matrix(1 0 0 1 -653 -9 )">
    <path d="M 22.847265625000002 21.689453124999996  C 22.94908854166667 22.672526041666664  23 23.717447916666668  23 24.82421875  C 23 26.243489583333336  22.625651041666668 27.4609375  21.876953125 28.4765625  C 21.128255208333336 29.4921875  20.22682291666667 30  19.17265625 30  L 3.8273437500000003 30  C 2.7731770833333336 30  1.871744791666667 29.4921875  1.1230468750000002 28.4765625  C 0.3743489583333334 27.4609375  0 26.243489583333336  0 24.82421875  C 0 23.717447916666668  0.05091145833333345 22.672526041666664  0.15273437500000014 21.689453124999996  C 0.2545572916666668 20.70638020833333  0.4432291666666668 19.716796875  0.7187500000000001 18.720703125  C 0.9942708333333337 17.724609375  1.3446614583333334 16.871744791666668  1.7699218749999999 16.162109375000004  C 2.195182291666667 15.45247395833333  2.758203125 14.873046874999998  3.458984375 14.423828125000002  C 4.1597656249999995 13.974609375  4.965364583333334 13.750000000000002  5.87578125 13.750000000000002  C 7.445052083333334 15.416666666666664  9.319791666666667 16.250000000000004  11.5 16.250000000000004  C 13.680208333333336 16.250000000000004  15.554947916666668 15.416666666666664  17.12421875 13.750000000000002  C 18.034635416666667 13.750000000000002  18.840234374999998 13.974609375  19.541015625 14.423828125000002  C 20.241796875000002 14.873046874999998  20.804817708333335 15.45247395833333  21.230078125000002 16.162109375000004  C 21.65533854166667 16.871744791666668  22.00572916666667 17.724609375  22.28125 18.720703125  C 22.556770833333335 19.716796875  22.745442708333336 20.70638020833333  22.847265625000002 21.689453124999996  Z M 16.378515625000002 2.197265625  C 17.726171875000002 3.662109375  18.400000000000002 5.429687500000001  18.400000000000002 7.5  C 18.400000000000002 9.570312499999998  17.726171875000002 11.337890625  16.378515625000002 12.802734375  C 15.030859375 14.267578125  13.4046875 15  11.5 15  C 9.5953125 15  7.9691406250000005 14.267578125  6.6214843750000005 12.802734375  C 5.2738281250000005 11.337890625  4.6000000000000005 9.570312499999998  4.6000000000000005 7.5  C 4.6000000000000005 5.429687500000001  5.2738281250000005 3.662109375  6.6214843750000005 2.197265625  C 7.9691406250000005 0.732421875  9.5953125 0  11.5 0  C 13.4046875 0  15.030859375 0.732421875  16.378515625000002 2.197265625  Z " fill-rule="nonzero" fill="#000000" stroke="none" transform="matrix(1 0 0 1 653 9 )" />
  </g>
</svg>