<?xml version="1.0" encoding="utf-8"?>
<svg version="1.1" xmlns:xlink="http://www.w3.org/1999/xlink" width="30px" height="30px" xmlns="http://www.w3.org/2000/svg">
  <g transform="matrix(1 0 0 1 -107 -9 )">
    <path d="M 21.997767857142858 5.429382540809085  C 23.046875000000004 7.104329311568485  23.57142857142857 8.92831795599716  23.57142857142857 10.901348474095101  C 23.57142857142857 12.874378992193042  23.046875000000004 14.698367636621715  21.997767857142858 16.373314407381123  C 20.94866071428572 18.04826117814052  19.517299107142858 19.37189496096522  17.70368303571429 20.344215755855217  C 15.890066964285715 21.316536550745205  13.917410714285715 21.802696948190206  11.785714285714285 21.802696948190206  C 10.82589285714286 21.802696948190206  9.84375 21.689141234918377  8.839285714285715 21.462029808374737  C 7.455357142857144 22.7111426543648  5.904017857142858 23.61958836053939  4.185267857142858 24.18736692689851  C 3.783482142857143 24.315117104329314  3.303571428571429 24.428672817601132  2.745535714285714 24.52803406671398  L 2.6953125 24.52803406671398  C 2.5725446428571432 24.52803406671398  2.4581473214285716 24.47125621007807  2.352120535714286 24.357700496806245  C 2.24609375 24.244144783534423  2.1819196428571432 24.095102909865155  2.159598214285714 23.91057487579844  C 2.1484375000000004 23.867991483321504  2.142857142857143 23.821859474804825  2.142857142857143 23.772178850248405  C 2.142857142857143 23.722498225691982  2.145647321428572 23.676366217175303  2.151227678571429 23.633782824698365  C 2.1568080357142856 23.591199432221433  2.16796875 23.548616039744502  2.184709821428571 23.506032647267567  L 2.2265625 23.399574166075233  C 2.2265625 23.399574166075233  2.24609375 23.360539389638042  2.28515625 23.28246983676366  C 2.3242187500000004 23.20440028388928  2.346540178571429 23.16891412349184  2.352120535714286 23.17601135557133  C 2.3577008928571432 23.183108587650814  2.3828125000000004 23.147622427253374  2.427455357142857 23.069552874378992  C 2.472098214285715 22.99148332150461  2.494419642857143 22.959545777146914  2.494419642857143 22.97374024130589  C 2.5502232142857144 22.88857345635202  2.678571428571429 22.711142654364796  2.879464285714286 22.441447835344214  C 3.080357142857143 22.17175301632363  3.225446428571429 21.96238466997871  3.314732142857143 21.813342796309442  C 3.404017857142857 21.664300922640173  3.5295758928571432 21.458481192334986  3.69140625 21.195883605393895  C 3.8532366071428577 20.9332860184528  3.9927455357142856 20.660042583392475  4.109933035714286 20.37615330021292  C 4.227120535714286 20.092264017033354  4.341517857142858 19.779985805535844  4.453125 19.439318665720368  C 3.069196428571428 18.417317246273953  1.9810267857142858 17.1611071682044  1.1886160714285714 15.67068843151171  C 0.3962053571428571 14.180269694819021  0 12.590489709013482  0 10.901348474095101  C 0 8.92831795599716  0.5245535714285714 7.104329311568485  1.5736607142857144 5.429382540809085  C 2.622767857142857 3.7544357700496778  4.054129464285714 2.430801987224979  5.867745535714286 1.4584811923349905  C 7.681361607142858 0.48616039744499573  9.65401785714286 0  11.785714285714285 0  C 13.917410714285715 0  15.890066964285715 0.48616039744499573  17.70368303571429 1.4584811923349905  C 19.517299107142858 2.430801987224979  20.94866071428572 3.7544357700496778  21.997767857142858 5.429382540809085  Z M 28.744419642857142 11.454932576295246  C 29.58147321428571 12.973740241305888  30 14.60610361958836  30 16.352022711142656  C 30 18.055358410220013  29.603794642857146 19.64868701206529  28.81138392857143 21.132008516678493  C 28.01897321428572 22.615330021291697  26.930803571428577 23.867991483321504  25.546875 24.889992902767922  C 25.658482142857142 25.23066004258339  25.77287946428571 25.54293825408091  25.89006696428571 25.826827537260467  C 26.00725446428572 26.11071682044003  26.146763392857146 26.38396025550036  26.30859375 26.64655784244145  C 26.470424107142858 26.909155429382537  26.595982142857146 27.11497515968772  26.685267857142858 27.26401703335699  C 26.774553571428577 27.413058907026258  26.91964285714286 27.622427253371185  27.12053571428571 27.892122072391768  C 27.321428571428573 28.16181689141235  27.44977678571429 28.339247693399575  27.505580357142858 28.42441447835344  C 27.516741071428577 28.438608942512424  27.539062500000004 28.470546486870123  27.572544642857142 28.520227111426546  C 27.606026785714292 28.569907735982966  27.631138392857146 28.605393896380413  27.64787946428571 28.626685592618877  C 27.664620535714292 28.647977288857344  27.68694196428572 28.68346344925479  27.71484375 28.733144073811214  C 27.742745535714285 28.782824698367634  27.76227678571429 28.821859474804825  27.7734375 28.85024840312278  L 27.81529017857143 28.956706884315118  C 27.81529017857143 28.956706884315118  27.826450892857146 28.99929027679205  27.84877232142857 29.08445706174592  C 27.87109375 29.169623846699785  27.87388392857143 29.215755855216468  27.857142857142858 29.222853087295952  C 27.84040178571429 29.22995031937544  27.83482142857143 29.276082327892123  27.84040178571429 29.36124911284599  C 27.806919642857142 29.55997161107168  27.734375000000004 29.71611071682044  27.622767857142858 29.829666430092264  C 27.51116071428572 29.943222143364085  27.388392857142858 29.992902767920512  27.25446428571429 29.978708303761533  C 26.696428571428577 29.879347054648687  26.21651785714286 29.76579134137686  25.814732142857142 29.638041163946063  C 24.095982142857146 29.07026259758694  22.544642857142858 28.16181689141235  21.16071428571429 26.912704045422284  C 20.15625 27.139815471965935  19.174107142857146 27.253371185237757  18.21428571428571 27.253371185237757  C 15.189732142857142 27.253371185237757  12.555803571428571 26.31653655074521  10.3125 24.442867281760115  C 10.959821428571429 24.499645138396026  11.450892857142856 24.52803406671398  11.785714285714285 24.52803406671398  C 13.582589285714286 24.52803406671398  15.306919642857142 24.208658623136976  16.958705357142858 23.569907735982966  C 18.610491071428573 22.93115684882896  20.083705357142858 22.015613910574878  21.37834821428571 20.823278921220727  C 22.7734375 19.517388218594746  23.844866071428577 18.01277501774308  24.59263392857143 16.30943931866572  C 25.34040178571428 14.60610361958836  25.71428571428571 12.803406671398152  25.71428571428571 10.901348474095101  C 25.71428571428571 9.808374733853796  25.585937499999996 8.729595457771469  25.32924107142857 7.665010645848119  C 26.76897321428571 8.672817601135556  27.90736607142857 9.936124911284598  28.744419642857142 11.454932576295246  Z " fill-rule="nonzero" fill="#000000" stroke="none" transform="matrix(1 0 0 1 107 9 )" />
  </g>
</svg>