<?xml version="1.0" encoding="utf-8"?>
<svg version="1.1" xmlns:xlink="http://www.w3.org/1999/xlink" width="113px" height="146px" xmlns="http://www.w3.org/2000/svg">
  <g transform="matrix(1 0 0 1 -636 -1523 )">
    <path d="M 109.27256944444444 2.708984375  C 111.75752314814817 4.514973958333312  113 6.653645833333312  113 9.125  L 113 136.875  C 113 139.34635416666666  111.75752314814817 141.48502604166666  109.27256944444444 143.291015625  C 106.78761574074075 145.09700520833334  103.8449074074074 146  100.44444444444444 146  C 97.0439814814815 146  94.10127314814817 145.09700520833334  91.61631944444444 143.291015625  L 3.727430555555556 79.416015625  C 1.2424768518518536 77.61002604166666  0 75.47135416666666  0 73  C 0 70.52864583333333  1.2424768518518536 68.38997395833333  3.727430555555556 66.583984375  L 91.61631944444444 2.708984375  C 94.10127314814817 0.9029947916666559  97.0439814814815 0  100.44444444444444 0  C 103.8449074074074 0  106.78761574074075 0.9029947916666559  109.27256944444444 2.708984375  Z " fill-rule="nonzero" fill="#000000" stroke="none" transform="matrix(1 0 0 1 636 1523 )" />
  </g>
</svg>