<?xml version="1.0" encoding="utf-8"?>
<svg version="1.1" xmlns:xlink="http://www.w3.org/1999/xlink" width="37px" height="35px" xmlns="http://www.w3.org/2000/svg">
  <g transform="matrix(1 0 0 1 -20 -15 )">
    <path d="M 35.905691964285715 15.815625  C 36.63523065476191 17.769791666666663  37 20.197916666666664  37 23.099999999999998  C 37 25.52083333333333  36.12593005952381 28.809375  34.37779017857143 32.965625  C 34.33649553571429 33.067708333333336  34.26422991071429 33.24270833333333  34.16099330357143 33.490625  C 34.05775669642858 33.73854166666666  33.96484375000001 33.95729166666667  33.882254464285715 34.146875  C 33.79966517857143 34.33645833333333  33.710193452380956 34.496874999999996  33.613839285714285 34.628125  C 33.448660714285715 34.876041666666666  33.25595238095238 35  33.035714285714285 35  C 32.82924107142857 35  32.6675037202381 34.927083333333336  32.55050223214286 34.78125  C 32.43350074404762 34.635416666666664  32.375 34.453125  32.375 34.234375  C 32.375 34.103125  32.39220610119048 33.90989583333334  32.42661830357143 33.6546875  C 32.46103050595238 33.399479166666666  32.47823660714286 33.228125  32.47823660714286 33.140625  C 32.547061011904766 32.14895833333333  32.58147321428572 31.252083333333335  32.581473214285715 30.45  C 32.58147321428572 28.977083333333336  32.46103050595239 27.657291666666666  32.220145089285715 26.490624999999998  C 31.97925967261905 25.32395833333333  31.64546130952381 24.314062500000002  31.21875 23.4609375  C 30.792038690476193 22.6078125  30.241443452380953 21.871354166666663  29.56696428571429 21.2515625  C 28.89248511904762 20.631770833333334  28.166387648809522 20.125  27.388671875 19.73125  C 26.61095610119048 19.3375  25.695591517857142 19.027604166666663  24.642578125 18.801562499999996  C 23.589564732142858 18.575520833333336  22.529668898809522 18.41875  21.462890625 18.331249999999997  C 20.396112351190478 18.24375  19.188244047619047 18.2  17.839285714285715 18.2  L 13.214285714285715 18.2  L 13.214285714285715 23.799999999999997  C 13.214285714285715 24.179166666666667  13.083519345238097 24.507291666666667  12.821986607142856 24.784375  C 12.56045386904762 25.06145833333333  12.25074404761905 25.2  11.892857142857144 25.2  C 11.53497023809524 25.2  11.225260416666668 25.06145833333333  10.963727678571429 24.784375  L 0.39229910714285715 13.584375000000001  C 0.13076636904761904 13.307291666666664  0 12.979166666666663  0 12.6  C 0 12.220833333333331  0.13076636904761904 11.892708333333331  0.39229910714285715 11.615625000000001  L 10.963727678571429 0.4156249999999989  C 11.225260416666668 0.138541666666665  11.53497023809524 0  11.892857142857144 0  C 12.25074404761905 0  12.56045386904762 0.138541666666665  12.821986607142856 0.4156249999999989  C 13.083519345238097 0.6927083333333289  13.214285714285715 1.0208333333333297  13.214285714285715 1.4000000000000012  L 13.214285714285715 6.999999999999998  L 17.839285714285715 6.999999999999998  C 27.653645833333336 6.999999999999998  33.67578125 9.938541666666666  35.905691964285715 15.815625  Z " fill-rule="nonzero" fill="#000000" stroke="none" transform="matrix(1 0 0 1 20 15 )" />
  </g>
</svg>