<?xml version="1.0" encoding="utf-8"?>
<svg version="1.1" xmlns:xlink="http://www.w3.org/1999/xlink" width="26px" height="35px" xmlns="http://www.w3.org/2000/svg">
  <g transform="matrix(1 0 0 1 -237 -83 )">
    <path d="M 25.824573863636363 32.685546875  C 25.941524621212125 32.809244791666664  26 32.955729166666664  26 33.125  L 26 34.375  C 26 34.544270833333336  25.941524621212125 34.690755208333336  25.824573863636363 34.814453125  C 25.707623106060606 34.938151041666664  25.56912878787879 35  25.40909090909091 35  L 0.5909090909090909 35  C 0.4308712121212122 35  0.2923768939393939 34.938151041666664  0.17542613636363635 34.814453125  C 0.058475378787878785 34.690755208333336  0 34.544270833333336  0 34.375  L 0 33.125  C 0 32.955729166666664  0.058475378787878785 32.809244791666664  0.17542613636363635 32.685546875  C 0.2923768939393939 32.561848958333336  0.4308712121212122 32.5  0.5909090909090909 32  L 25.40909090909091 32  C 25.56912878787879 32.5  25.707623106060606 32.561848958333336  25.824573863636363 32.685546875  Z M 20.764914772727273 8.90625  C 21.10345643939394 10.026041666666664  21.272727272727273 11.22395833333333  21.272727272727273 12.499999999999998  C 21.272727272727273 13.515625  21.12192234848485 14.453125000000002  20.8203125 15.3125  C 20.518702651515152 16.171875  20.12476325757576 16.904296875  19.63849431818182 17.509765624999996  C 19.15222537878788 18.115234375  18.613636363636363 18.688151041666664  18.022727272727273 19.228515625  C 17.43181818181818 19.76888020833333  16.84090909090909 20.2734375  16.25 20.7421875  C 15.65909090909091 21.2109375  15.120501893939394 21.679687499999996  14.634232954545455 22.1484375  C 14.147964015151516 22.617187500000004  13.754024621212123 23.147786458333332  13.452414772727273 23.740234375  C 13.150804924242426 24.332682291666668  13 24.960937499999996  13 25.625000000000004  C 13 26.874999999999996  13.412405303030303 28.333333333333332  14.23721590909091 30.000000000000004  L 14.163352272727273 29.98046875  L 14.18181818181818 30.000000000000004  C 13.073863636363635 29.466145833333332  12.089015151515152 28.925781249999996  11.227272727272727 28.378906249999996  C 10.365530303030303 27.832031249999996  9.513020833333336 27.180989583333336  8.669744318181818 26.42578125  C 7.826467803030303 25.670572916666668  7.12784090909091 24.873046875000004  6.573863636363637 24.033203125  C 6.019886363636363 23.193359375  5.5736268939393945 22.213541666666668  5.2350852272727275 21.09375  C 4.896543560606061 19.97395833333333  4.7272727272727275 18.776041666666664  4.7272727272727275 17.5  C 4.7272727272727275 16.484375  4.878077651515151 15.546875000000002  5.1796875 14.687499999999998  C 5.4812973484848495 13.828125  5.875236742424243 13.095703124999998  6.361505681818182 12.490234375  C 6.847774621212121 11.884765624999998  7.386363636363637 11.31184895833333  7.9772727272727275 10.771484374999998  C 8.56818181818182 10.231119791666664  9.15909090909091 9.7265625  9.75 9.257812500000002  C 10.34090909090909 8.789062499999998  10.879498106060607 8.3203125  11.365767045454545 7.851562499999998  C 11.852035984848486 7.3828125  12.24597537878788 6.852213541666667  12.547585227272727 6.259765624999999  C 12.849195075757576 5.667317708333331  13 5.039062500000001  13 4.375  C 13 3.151041666666665  12.59375 1.6927083333333293  11.78125 0  L 11.836647727272727 0.019531249999999445  L 11.818181818181818 0  C 12.926136363636363 0.5338541666666657  13.910984848484848 1.0742187500000004  14.772727272727273 1.6210937500000004  C 15.634469696969699 2.1679687500000004  16.48697916666667 2.819010416666667  17.33025568181818 3.5742187499999996  C 18.1735321969697 4.329427083333332  18.87215909090909 5.126953125  19.426136363636363 5.966796874999999  C 19.980113636363637 6.806640624999999  20.426373106060606 7.786458333333331  20.764914772727273 8.90625  Z " fill-rule="nonzero" fill="#000000" stroke="none" transform="matrix(1 0 0 1 237 83 )" />
  </g>
</svg>