<?xml version="1.0" encoding="utf-8"?>
<svg version="1.1" xmlns:xlink="http://www.w3.org/1999/xlink" width="17px" height="18px" xmlns="http://www.w3.org/2000/svg">
  <g transform="matrix(1 0 0 1 -707 -255 )">
    <path d="M 2.623046875 3.9483173076923084  C 2.7632378472222223 3.8112980769230766  2.833333333333333 3.649038461538461  2.833333333333333 3.4615384615384612  C 2.833333333333333 3.27403846153846  2.7632378472222223 3.1117788461538436  2.623046875 2.9747596153846163  C 2.482855902777778 2.8377403846153832  2.316840277777778 2.769230769230769  2.125 2.769230769230769  C 1.9331597222222223 2.769230769230769  1.7671440972222223 2.8377403846153832  1.626953125 2.9747596153846163  C 1.486762152777778 3.1117788461538436  1.4166666666666665 3.27403846153846  1.4166666666666665 3.4615384615384612  C 1.4166666666666665 3.649038461538461  1.486762152777778 3.8112980769230766  1.626953125 3.9483173076923084  C 1.7671440972222223 4.085336538461537  1.9331597222222223 4.153846153846153  2.125 4.153846153846153  C 2.316840277777778 4.153846153846153  2.482855902777778 4.085336538461537  2.623046875 3.9483173076923084  Z M 15.151692708333332 10.66045673076923  C 15.439453125 10.3828125  15.583333333333332 10.060096153846155  15.583333333333332 9.692307692307692  C 15.583333333333332 9.439903846153845  15.504014756944446 9.147836538461537  15.345377604166668 8.81610576923077  C 15.18674045138889 8.484375  14.989366319444446 8.314903846153845  14.753255208333332 8.307692307692308  C 14.863932291666668 8.185096153846153  14.956163194444446 8.013822115384613  15.029947916666668 7.793870192307692  C 15.10373263888889 7.573918269230768  15.140625 7.373798076923077  15.140625 7.193509615384617  C 15.140625 6.695913461538462  14.945095486111112 6.266826923076922  14.554036458333332 5.90625  C 14.686848958333332 5.6826923076923075  14.753255208333332 5.43389423076923  14.753255208333332 5.159855769230769  C 14.753255208333332 4.893028846153847  14.68869357638889 4.6280048076923075  14.5595703125 4.364783653846153  C 14.430447048611112 4.101562499999998  14.255208333333332 3.912259615384613  14.033854166666668 3.796875  C 14.070746527777779 3.5805288461538467  14.089192708333332 3.3786057692307687  14.089192708333332 3.191105769230769  C 14.089192708333332 2.578124999999999  13.90842013888889 2.1237980769230766  13.546875 1.828125  C 13.185329861111112 1.5324519230769211  12.68359375 1.3846153846153837  12.041666666666668 1.3846153846153837  L 10.625 1.3846153846153837  C 9.65842013888889 1.3846153846153837  8.39670138888889 1.647836538461538  6.83984375 2.1742788461538467  C 6.802951388888889 2.1887019230769216  6.695963541666666 2.226562499999999  6.518880208333334 2.2878605769230775  C 6.341796875 2.3491586538461515  6.210828993055556 2.3942307692307687  6.1259765625 2.4230769230769225  C 6.041124131944445 2.451923076923076  5.912000868055556 2.4933894230769225  5.738606770833334 2.5474759615384612  C 5.565212673611112 2.6015625  5.425021701388889 2.64122596153846  5.318033854166666 2.6664663461538467  C 5.211046006944445 2.69170673076923  5.089301215277779 2.715144230769231  4.952799479166666 2.7367788461538467  C 4.816297743055556 2.7584134615384612  4.700086805555556 2.769230769230769  4.604166666666666 2.769230769230769  L 4.25 2.769230769230769  L 4.25 9.692307692307692  L 4.604166666666666 9.692307692307692  C 4.722222222222223 9.692307692307692  4.853190104166667 9.724759615384617  4.9970703125 9.789663461538462  C 5.140950520833334 9.854567307692308  5.288519965277779 9.951923076923077  5.439778645833334 10.08173076923077  C 5.591037326388888 10.211538461538462  5.733072916666666 10.339543269230768  5.865885416666666 10.465745192307692  C 5.998697916666666 10.591947115384615  6.146267361111112 10.75060096153846  6.30859375 10.94170673076923  C 6.470920138888889 11.132812499999998  6.598198784722223 11.286057692307692  6.6904296875 11.401442307692308  C 6.782660590277779 11.516826923076922  6.898871527777779 11.66466346153846  7.0390625 11.844951923076923  C 7.179253472222223 12.025240384615383  7.264105902777779 12.13341346153846  7.293619791666666 12.169471153846155  C 7.699435763888889 12.659855769230768  7.983506944444445 12.98798076923077  8.145833333333334 13.153846153846155  C 8.448350694444446 13.463942307692308  8.667860243055557 13.85877403846154  8.804361979166668 14.338341346153845  C 8.940863715277777 14.817908653846153  9.053385416666668 15.270432692307693  9.141927083333332 15.695913461538462  C 9.23046875 16.12139423076923  9.370659722222223 16.427884615384617  9.5625 16.615384615384617  C 10.270833333333334 16.615384615384617  10.743055555555557 16.44591346153846  10.979166666666668 16.106971153846153  C 11.215277777777777 15.768028846153847  11.333333333333332 15.245192307692307  11.333333333333332 14.538461538461538  C 11.333333333333332 14.11298076923077  11.15625 13.534254807692308  10.802083333333332 12.802283653846155  C 10.447916666666668 12.0703125  10.270833333333332 11.495192307692305  10.270833333333332 11.076923076923077  L 14.166666666666668 11.076923076923077  C 14.535590277777779 11.076923076923077  14.863932291666668 10.938100961538462  15.151692708333332 10.66045673076923  Z M 16.457682291666668 7.939903846153847  C 16.819227430555554 8.466346153846153  17 9.054086538461538  17 9.703125  C 17 10.44591346153846  16.719618055555554 11.091346153846153  16.158854166666668 11.639423076923077  C 15.598090277777779 12.187499999999998  14.934027777777779 12.461538461538462  14.166666666666668 12.461538461538462  L 12.21875 12.461538461538462  C 12.572916666666668 13.17548076923077  12.75 13.867788461538462  12.75 14.538461538461538  C 12.75 15.389423076923078  12.620876736111112 16.060096153846153  12.362630208333332 16.55048076923077  C 12.104383680555557 17.048076923076923  11.728081597222223 17.4140625  11.233723958333332 17.6484375  C 10.739366319444446 17.8828125  10.182291666666668 18  9.5625 18  C 9.186197916666668 18  8.854166666666668 17.86658653846154  8.56640625 17.599759615384617  C 8.315538194444445 17.361778846153847  8.116319444444445 17.06610576923077  7.96875 16.712740384615383  C 7.821180555555556 16.359375  7.727105034722223 16.033052884615387  7.6865234375 15.733774038461538  C 7.645941840277779 15.434495192307692  7.581380208333334 15.129807692307693  7.492838541666666 14.819711538461538  C 7.404296875 14.509615384615385  7.289930555555556 14.278846153846155  7.149739583333334 14.127403846153845  C 6.795572916666666 13.766826923076925  6.400824652777779 13.30889423076923  5.965494791666666 12.75360576923077  C 5.220269097222223 11.80889423076923  4.714843750000001 11.25  4.44921875 11.076923076923077  L 1.4166666666666665 11.076923076923077  C 1.0256076388888888 11.076923076923077  0.6917317708333334 10.94170673076923  0.4150390625 10.671274038461538  C 0.13834635416666669 10.400841346153845  0 10.07451923076923  0 9.692307692307692  L 0 2.769230769230769  C 0 2.387019230769229  0.13834635416666669 2.0606971153846163  0.4150390625 1.7902644230769225  C 0.6917317708333334 1.5198317307692306  1.0256076388888888 1.3846153846153837  1.4166666666666665 1.3846153846153837  L 4.604166666666666 1.3846153846153837  C 4.766493055555556 1.3846153846153837  5.275607638888889 1.240384615384613  6.131510416666666 0.9519230769230775  C 7.075954861111112 0.6346153846153824  7.898654513888889 0.396634615384613  8.599609375 0.23798076923076938  C 9.300564236111112 0.0793269230769218  10.038411458333332 0  10.813151041666668 0  L 12.052734375 0  C 13.085720486111112 0  13.921332465277779 0.2848557692307687  14.5595703125 0.8545673076923082  C 15.197808159722223 1.4242788461538436  15.513237847222223 2.2031249999999987  15.505859375 3.191105769230769  L 15.505859375 3.2451923076923084  C 15.948567708333332 3.8004807692307687  16.169921875 4.442307692307691  16.169921875 5.1706730769230775  C 16.169921875 5.329326923076922  16.158854166666668 5.484375  16.13671875 5.635817307692308  C 16.417100694444446 6.118990384615382  16.557291666666668 6.6382211538461515  16.557291666666668 7.193509615384617  C 16.557291666666668 7.453125  16.524088541666668 7.7019230769230775  16.457682291666668 7.939903846153847  Z " fill-rule="nonzero" fill="#000000" stroke="none" transform="matrix(1 0 0 1 707 255 )" />
  </g>
</svg>