<?xml version="1.0" encoding="utf-8"?>
<svg version="1.1" xmlns:xlink="http://www.w3.org/1999/xlink" width="50px" height="48px" xmlns="http://www.w3.org/2000/svg">
  <g transform="matrix(1 0 0 1 -571 -637 )">
    <path d="M 17.0803123257111 38.396694214876035  C 17.83324037925265 38.09917355371901  18.414203383528537 37.57575757575758  18.823201338538762 36.82644628099174  C 19.21360847741216 36.07713498622589  19.315857966164717 35.3168044077135  19.129949804796432 34.54545454545455  C 18.944041643428147 33.77410468319559  18.525748280349507 33.22314049586777  17.875069715560514 32.89256198347107  C 17.24298196690835 32.58402203856748  16.56441717791411 32.57300275482093  15.839375348577803 32.85950413223141  C 15.114333519241493 33.14600550964187  14.556609035136642 33.652892561983464  14.166201896263244 34.3801652892562  C 13.757203941253021 35.129476584022036  13.636363636363638 35.884297520661164  13.803680981595093 36.64462809917356  C 13.97099832682655 37.404958677685954  14.37070087376836 37.96143250688705  15.002788622420523 38.31404958677686  C 15.634876371072693 38.66666666666667  16.32738427216955 38.69421487603306  17.0803123257111 38.396694214876035  Z M 20.83100948131623 33.43801652892562  C 21.109871723368656 33.3168044077135  21.31437070087377 33.112947658402206  21.44450641383157 32.82644628099173  C 21.5932329429262 32.53994490358127  21.62576687116565 32.24793388429752  21.54210819854992 31.950413223140494  C 21.45844952593419 31.652892561983474  21.29577988473694 31.44903581267217  21.054099274958173 31.338842975206614  C 20.793827849042575 31.228650137741038  20.52890871909277 31.234159779614323  20.259341885108757 31.355371900826448  C 19.989775051124745 31.476584022038562  19.789923777653843 31.680440771349858  19.65978806469604 31.96694214876033  C 19.34374419036996 32.65013774104682  19.46458449525934 33.14600550964187  20.022308979364194 33.45454545454545  C 20.282580405279795 33.564738292011015  20.552147239263803 33.55922865013774  20.83100948131623 33.43801652892562  Z M 26.226993865030675 30.066115702479337  C 27.110057631530026 32.060606060606055  27.13329615170106 34.15977961432506  26.296709425543778 36.36363636363636  C 25.4601226993865 38.611570247933884  23.991448224577063 40.264462809917354  21.89068600111545 41.32231404958678  C 19.789923777653843 42.3801652892562  17.707752370329057 42.51239669421488  15.644171779141105 41.71900826446281  C 13.654954452500464 40.96969696969697  12.28388176240937 39.57575757575758  11.53095370886782 37.53719008264463  C 10.77802565532627 35.49862258953168  10.838445807770961 33.43250688705234  11.712214166201896 31.338842975206614  C 12.585982524632833 29.289256198347108  13.994236846997584 27.757575757575758  15.936977133296152 26.743801652892564  C 17.879717419594723 25.73002754820936  19.836400817995912 25.52066115702479  21.80702732849972 26.115702479338843  C 23.870607919687675 26.754820936639113  25.343930098531324 28.07162534435262  26.226993865030675 30.066115702479337  Z M 31.30228667038483 39.81818181818182  C 34.025841234430196 37.20661157024794  35.25748280349508 34.29201101928374  34.997211377579475 31.074380165289256  C 34.82989403234802 28.958677685950413  34.00260271425916 27.08539944903581  32.515337423312886 25.454545454545453  C 31.028072132366614 23.823691460055095  29.089979550102253 22.62258953168044  26.7010596765198 21.85123966942149  C 24.31213980293735 21.079889807162534  21.760550288157653 20.84848484848485  19.046291132180706 21.15702479338843  C 14.90053913366797 21.663911845730027  11.46588585238892 23.22314049586777  8.742331288343557 25.83471074380165  C 6.018776724298197 28.446280991735534  4.787135155233315 31.360881542699723  5.047406581148913 34.578512396694215  C 5.214723926380368 36.69421487603306  6.0420152444692325 38.56749311294766  7.529280535415504 40.19834710743802  C 9.016545826361778 41.829201101928376  10.95463840862614 43.03030303030303  13.34355828220859 43.80165289256198  C 15.732478155791041 44.57300275482093  18.28406767057074 44.80440771349862  20.998326826547686 44.49586776859504  C 25.144078825060422 43.988980716253444  28.578732106339473 42.4297520661157  31.30228667038483 39.81818181818182  Z M 42.63803680981595 27.355371900826448  C 43.270124558468126 28.51239669421488  43.5861684327942 29.796143250688704  43.586168432794196 31.206611570247937  C 43.5861684327942 32.70523415977961  43.242238334262886 34.24242424242424  42.554378137200224 35.81818181818182  C 41.86651794013758 37.3939393939394  40.85331846068042 38.903581267217625  39.514779698828775 40.34710743801653  C 38.17624093697714 41.790633608815426  36.60996467744935 43.08539944903581  34.8159509202454 44.231404958677686  C 33.02193716304146 45.37741046831956  30.921174939579853 46.29201101928374  28.51366424986057 46.97520661157024  C 26.106153560141294 47.65840220385675  23.59174567763525 48  20.970440602342443 48  C 18.349135527049636 48  15.792898308235733 47.63085399449036  13.301728945900726 46.892561983471076  C 10.81055958356572 46.15426997245179  8.575013943112102 45.12947658402204  6.595092024539877 43.81818181818181  C 4.6151701059676515 42.5068870523416  3.0210076222346163 40.84297520661157  1.8126045733407696 38.82644628099173  C 0.6042015244469232 36.809917355371894  0 34.611570247933884  0 32.231404958677686  C 0 29.696969696969695  0.6460308607547871 26.997245179063363  1.9380925822643613 24.132231404958674  C 3.2301543037739364 21.26721763085399  5.0659973972857415 18.424242424242422  7.445621862799777 15.603305785123965  C 10.587469789923778 11.878787878787875  13.76185164528723 9.278236914600544  16.96876742889013 7.801652892561982  C 20.175683212493027 6.325068870523415  22.467001301357133 6.402203856749306  23.84272169548243 8.033057851239672  C 25.05112474437628 9.443526170798892  25.23703290574456 11.746556473829196  24.400446179587284 14.94214876033058  C 24.32608291503997 15.250688705234156  24.316787506971558 15.471074380165286  24.37255995538204 15.603305785123965  C 24.428332403792528 15.735537190082638  24.521286484476672 15.812672176308535  24.651422197434467 15.834710743801654  C 24.78155791039227 15.856749311294763  24.916341327384277 15.851239669421489  25.055772448410487 15.81818181818182  C 25.195203569436703 15.785123966942146  25.320691578360293 15.746556473829198  25.43223647518126 15.702479338842975  L 25.59955382041272 15.636363636363638  C 28.183677263431868 14.336088154269973  30.470347648261757 13.685950413223143  32.4595649749024 13.685950413223143  C 34.44878230154304 13.685950413223143  35.87097973601042 14.358126721763082  36.72615727830452 15.702479338842975  C 37.5627440044618 17.090909090909086  37.5627440044618 19.052341597796143  36.72615727830452 21.58677685950413  C 36.68897564603086 21.873278236914597  36.647146309723 22.093663911845727  36.60066926938092 22.24793388429752  C 36.554192229038854 22.40220385674931  36.59602156534672 22.539944903581265  36.72615727830452 22.661157024793386  C 36.85629299126232 22.78236914600551  36.96783788808329 22.865013774104682  37.06079196876743 22.90909090909091  C 37.15374604945158 22.95316804407713  37.31176798661461 23.019283746556468  37.53485778025655 23.107438016528924  C 38.59453430005577 23.50413223140496  39.55196133110244 24.02203856749311  40.40713887339654 24.66115702479339  C 41.262316415690655 25.30027548209366  42.00594906116379 26.198347107438014  42.63803680981595 27.355371900826448  Z M 38.70607919687674 8.41322314049587  C 39.80293734894963 8.820936639118456  40.741773563859454 9.542699724517902  41.522587841606246 10.578512396694215  C 42.30340211935304 11.614325068870523  42.810001859081616 12.809917355371903  43.04238706079197 14.165289256198346  C 43.274772262502324 15.520661157024788  43.21435211005763 16.815426997245176  42.8611266034579 18.049586776859503  C 42.712400074363266 18.5564738292011  42.43818553634505 18.931129476584022  42.038482989403235 19.173553719008268  C 41.638780442461425 19.415977961432503  41.225134783417 19.460055096418735  40.79754601226993 19.305785123966942  C 40.36995724112289 19.129476584022036  40.053913366796806 18.80440771349862  39.84941438929169 18.330578512396695  C 39.64491541178658 17.856749311294767  39.60773377951293 17.366391184572997  39.737869492470715 16.859504132231407  C 40.10968581520729 15.471074380165291  39.88659602156535 14.247933884297522  39.068600111544896 13.1900826446281  C 38.250604201524446 12.132231404958679  37.255995538204125 11.746556473829196  36.08477412158394 12.033057851239668  C 35.638594534300054 12.143250688705233  35.22030117122142 12.055096418732777  34.82989403234802 11.768595041322316  C 34.43948689347462 11.482093663911844  34.20710169176427 11.074380165289258  34.13273842721695 10.545454545454547  C 34.03978434653281 10.016528925619836  34.11414761108013 9.526170798898068  34.355828220858896 9.074380165289254  C 34.59750883063767 8.62258953168044  34.94143892916899 8.341597796143247  35.387618516452875 8.231404958677688  C 36.50306748466258 7.944903581267216  37.60922104480387 8.005509641873273  38.70607919687674 8.41322314049587  Z M 40.76965978806469 0.7438016528925608  C 43.01914854062093 1.570247933884298  44.95259341885109 3.05234159779614  46.56999442275516 5.190082644628097  C 48.18739542665923 7.30578512396694  49.233128834355824 9.757575757575752  49.70719464584496 12.545454545454545  C 50.181260457334076 15.333333333333332  50.05577244841049 17.99449035812672  49.330730619074174 20.52892561983471  C 49.16341327384272 21.123966942148762  48.847369399516644 21.564738292011015  48.38259899609593 21.85123966942149  C 47.91782859267522 22.137741046831955  47.434467373117684 22.181818181818183  46.93251533742331 21.98347107438017  C 46.43056330172895 21.785123966942145  46.05874697899239 21.41046831955923  45.81706636921361 20.859504132231404  C 45.575385759434845 20.30853994490358  45.52890871909277 19.735537190082646  45.6776352481874 19.140495867768593  C 46.198178100018595 17.33333333333333  46.29113218070273 15.438016528925617  45.956497490239826 13.454545454545453  C 45.621862799776906 11.47107438016529  44.87823015430378 9.730027548209364  43.72559955382041 8.231404958677688  C 42.57296895333705 6.710743801652892  41.19724855921175 5.658402203856745  39.59843837144451 5.0743801652892575  C 37.99962818367727 4.490358126721759  36.39152258784161 4.3966942148760335  34.774121583937536 4.793388429752065  C 34.25357873210634 4.925619834710744  33.7702175125488 4.820936639118454  33.32403792526492 4.479338842975205  C 32.87785833798104 4.13774104683195  32.59899609592861 3.658402203856742  32.48745119910764 3.0413223140495855  C 32.37590630228667 2.424242424242424  32.464212678936605 1.8567493112947595  32.75237032905744 1.3388429752066138  C 33.04052797917829 0.8209366391184574  33.44487823015431 0.49586776859504234  33.9654210819855 0.3636363636363633  C 36.25209146681539 -0.2093663911845809  38.52017103550846 -0.08264462809917106  40.76965978806469 0.7438016528925608  Z " fill-rule="nonzero" fill="#000000" stroke="none" transform="matrix(1 0 0 1 571 637 )" />
  </g>
</svg>