<?xml version="1.0" encoding="utf-8"?>
<svg version="1.1" xmlns:xlink="http://www.w3.org/1999/xlink" width="49px" height="50px" xmlns="http://www.w3.org/2000/svg">
  <g transform="matrix(1 0 0 1 -707 -636 )">
    <path d="M 0 35.49107142857143  C 0 30.375744047619047  2.343963553530752 26.041666666666664  7.031890660592255 22.488839285714285  C 6.883067577828399 22.135416666666664  6.808656036446469 21.651785714285715  6.808656036446469 21.03794642857143  C 6.808656036446469 20.665922619047617  6.910971905846622 20.21019345238095  7.115603644646924 19.67075892857143  C 7.32023538344723 19.1313244047619  7.543470007593015 18.712797619047617  7.7853075170842825 18.41517857142857  C 7.7667046317388015 18.00595238095238  7.83646545178436 17.513020833333332  7.994589977220956 16.93638392857143  C 8.152714502657556 16.359747023809522  8.36199696279423 15.95982142857143  8.622437357630979 15.736607142857146  C 8.622437357630979 13.151041666666663  9.48282080485953 10.467819940476186  11.203587699316628 7.686941964285715  C 12.92435459377373 4.906063988095238  14.947418375094914 2.9575892857142847  17.27277904328018 1.8415178571428548  C 19.858580106302202 0.6138392857142849  22.87224753227031 0  26.313781321184514 0  C 28.787965072133638 0  31.262148823082768 0.5115327380952439  33.73633257403189 1.534598214285715  C 34.64787395596052 1.925223214285715  35.485003796507215 2.3716517857142847  36.24772209567198 2.87388392857143  C 37.01044039483675 3.37611607142857  37.670842824601365 3.8969494047619015  38.22892938496583 4.436383928571431  C 38.787015945330296 4.975818452380948  39.29859529233106 5.608258928571431  39.76366742596811 6.333705357142855  C 40.22873955960517 7.059151785714285  40.61940015186029 7.747395833333331  40.93564920273349 8.3984375  C 41.25189825360668 9.049479166666663  41.55419514047077 9.835379464285715  41.84253986332574 10.756138392857146  C 42.13088458618071 11.67689732142857  42.368071374335614 12.509300595238093  42.554100227790435 13.253348214285715  C 42.74012908124526 13.997395833333332  42.94476082004556 14.908854166666663  43.16799544419135 15.987723214285715  L 43.195899772209565 16.127232142857146  C 44.21905846621109 17.67113095238095  44.73063781321184 19.066220238095237  44.73063781321184 20.3125  C 44.73063781321184 20.572916666666664  44.64692482915717 20.94494047619047  44.47949886104784 21.42857142857143  C 44.312072892938495 21.91220238095238  44.228359908883824 22.265625  44.228359908883824 22.488839285714285  C 44.228359908883824 22.507440476190478  44.24231207289294 22.539992559523807  44.27021640091116 22.586495535714285  C 44.29812072892938 22.632998511904763  44.330675778283975 22.679501488095237  44.36788154897494 22.726004464285715  C 44.40508731966591 22.772507440476193  44.42369020501139 22.805059523809522  44.42369020501139 22.823660714285715  C 45.85611237661352 24.94419642857143  46.976936218678816 26.93917410714286  47.78616173120729 28.80859375  C 48.595387243735765 30.67801339285714  49 32.6171875  49 34.62611607142857  C 49 35.42596726190476  48.81862186788155 36.356026785714285  48.45586560364465 37.41629464285714  C 48.09310933940775 38.4765625  47.57687927107062 39.00669642857143  46.90717539863326 39.00669642857143  C 46.739749430523915 39.00669642857143  46.55837129840547 38.936941964285715  46.3630410022779 38.797433035714285  C 46.16771070615034 38.65792410714286  45.99098329536827 38.49516369047619  45.83285876993166 38.309151785714285  C 45.67473424449507 38.12313988095238  45.498006833712985 37.881324404761905  45.30267653758542 37.58370535714286  C 45.107346241457854 37.28608630952381  44.958523158694 37.039620535714285  44.85620728929385 36.844308035714285  C 44.7538914198937 36.648995535714285  44.6283219438117 36.40718005952381  44.47949886104784 36.11886160714286  C 44.330675778283975 35.830543154761905  44.24696279422931 35.667782738095234  44.228359908883824 35.63058035714286  C 44.209757023538344 35.611979166666664  44.18185269552013 35.60267857142857  44.14464692482916 35.60267857142857  L 44.00512528473804 35.714285714285715  C 42.90755504935459 38.578869047619044  41.67976461655277 40.652901785714285  40.321753986332574 41.93638392857143  C 40.69381169324222 42.308407738095234  41.265850417615795 42.666480654761905  42.0378701594533 43.01060267857143  C 42.80988990129082 43.354724702380956  43.45168944570995 43.740699404761905  43.96326879271071 44.168526785714285  C 44.47484813971147 44.596354166666664  44.80504935459378 45.200892857142854  44.95387243735763 45.982142857142854  C 44.91666666666667 46.05654761904762  44.879460895975704 46.205357142857146  44.84225512528474 46.42857142857143  C 44.805049354593784 46.651785714285715  44.739939255884586 46.81919642857143  44.64692482915717 46.93080357142857  C 43.45634016704632 48.73511904761905  40.64730447987852 49.637276785714285  36.21981776765376 49.637276785714285  C 35.2338648443432 49.637276785714285  34.20605542900532 49.55357142857143  33.13638952164009 49.386160714285715  C 32.06672361427487 49.21875  31.15518223234624 49.0327380952381  30.401765375854215 48.828125  C 29.648348519362187 48.623511904761905  28.676347760060747 48.34449404761905  27.485763097949885 47.99107142857143  C 27.206719817767656 47.898065476190474  26.992786636294607 47.83296130952381  26.84396355353075 47.79575892857143  C 26.583523158694003 47.721354166666664  26.155656795747916 47.67950148809524  25.560364464692483 47.670200892857146  C 24.965072133637054 47.66090029761905  24.59301442672741 47.646949404761905  24.444191343963553 47.628348214285715  C 23.681473044798786 48.465401785714285  22.4955391040243 49.069940476190474  20.88638952164009 49.441964285714285  C 19.277239939255885 49.813988095238095  17.709946848899015 50  16.184510250569478 50  C 15.533409263477603 50  14.891609719058467 49.986049107142854  14.259111617312074 49.95814732142857  C 13.62661351556568 49.930245535714285  12.76157934700076 49.84654017857143  11.664009111617313 49.70703125  C 10.566438876233864 49.56752232142857  9.626993166287015 49.37686011904762  8.845671981776764 49.135044642857146  C 8.064350797266515 48.893229166666664  7.371393318147305 48.521205357142854  6.766799544419134 48.018973214285715  C 6.1622057706909645 47.51674107142857  5.85990888382688 46.921502976190474  5.859908883826879 46.23325892857143  C 5.85990888382688 45.48921130952381  5.952923310554292 44.935825892857146  6.138952164009113 44.57310267857143  C 6.324981017463934 44.210379464285715  6.706340167046318 43.759300595238095  7.2830296127562635 43.21986607142857  C 7.487661351556569 43.18266369047619  7.864369779802583 43.061755952380956  8.413154897494305 42.85714285714286  C 8.96194001518603 42.652529761904766  9.422361427486713 42.54092261904762  9.794419134396355 42.52232142857143  C 9.868830675778284 42.52232142857143  9.99905087319666 42.503720238095234  10.18507972665148 42.46651785714286  C 10.222285497342446 42.429315476190474  10.240888382687928 42.392113095238095  10.240888382687928 42.354910714285715  L 10.18507972665148 42.27120535714286  C 9.292141230068337 42.066592261904766  8.2875854214123 41.085379464285715  7.171412300683371 39.327566964285715  C 6.055239179954442 37.569754464285715  5.376233864844344 36.11421130952381  5.134396355353076 34.9609375  L 4.994874715261958 34.87723214285714  C 4.920463173880031 34.87723214285714  4.8088458618071375 35.063244047619044  4.66002277904328 35.43526785714286  C 4.325170842824601 36.197916666666664  3.8182422171602126 36.89081101190476  3.139236902050114 37.51395089285714  C 2.4602315869400155 38.137090773809526  1.739369779802582 38.485863095238095  0.9766514806378133 38.56026785714286  L 0.9487471526195901 38.56026785714286  C 0.8743356112376612 38.56026785714286  0.8185269552012147 38.51841517857143  0.7813211845102507 38.43470982142857  C 0.7441154138192865 38.351004464285715  0.6976082004555808 38.29985119047619  0.6417995444191344 38.28125  C 0.2139331814730448 37.276785714285715  0 36.34672619047619  0 35.49107142857143  Z " fill-rule="nonzero" fill="#000000" stroke="none" transform="matrix(1 0 0 1 707 636 )" />
  </g>
</svg>