<?xml version="1.0" encoding="utf-8"?>
<svg version="1.1" xmlns:xlink="http://www.w3.org/1999/xlink" width="50px" height="41px" xmlns="http://www.w3.org/2000/svg">
  <g transform="matrix(1 0 0 1 -842 -641 )">
    <path d="M 13.5498046875 11.417565947242208  C 13.956705729166668 11.01608713029576  14.16015625 10.479416466826535  14.16015625 9.80755395683453  C 14.16015625 9.135691446842522  13.956705729166668 8.594924060751397  13.5498046875 8.18525179856115  C 13.142903645833334 7.775579536370904  12.605794270833334 7.570743405275778  11.9384765625 7.570743405275778  C 11.238606770833334 7.570743405275778  10.6201171875 7.779676258992808  10.0830078125 8.197541966426858  C 9.5458984375 8.615407673860913  9.27734375 9.152078337330131  9.27734375 9.80755395683453  C 9.27734375 10.446642685851318  9.5458984375 10.975119904076738  10.0830078125 11.392985611510793  C 10.6201171875 11.810851318944843  11.238606770833334 12.019784172661868  11.9384765625 12.019784172661868  C 12.605794270833334 12.019784172661868  13.142903645833334 11.819044764188646  13.5498046875 11.417565947242208  Z M 31.67724609375 23.52338129496403  C 32.09228515625 23.162869704236606  32.2998046875 22.745003996802556  32.2998046875 22.26978417266187  C 32.2998046875 21.810951239008787  32.09228515625 21.401278976818546  31.67724609375 21.040767386091122  C 31.26220703125 20.680255795363706  30.729166666666668 20.5  30.078125 20.5  C 29.638671875 20.5  29.23583984375 20.684352517985616  28.86962890625 21.053057553956837  C 28.50341796875 21.421762589928058  28.3203125 21.827338129496404  28.3203125 22.26978417266187  C 28.3203125 22.72861710631495  28.50341796875 23.142386091127097  28.86962890625 23.51109112709832  C 29.23583984375 23.879796163069546  29.638671875 24.064148681055155  30.078125 24.064148681055155  C 30.729166666666668 24.064148681055155  31.26220703125 23.883892885691445  31.67724609375 23.52338129496403  Z M 25.93994140625 11.417565947242208  C 26.338704427083336 11.01608713029576  26.5380859375 10.479416466826535  26.5380859375 9.80755395683453  C 26.5380859375 9.135691446842522  26.338704427083336 8.594924060751397  25.93994140625 8.18525179856115  C 25.541178385416668 7.775579536370904  25.008138020833336 7.570743405275778  24.3408203125 7.570743405275778  C 23.640950520833336 7.570743405275778  23.022460937500004 7.779676258992808  22.4853515625 8.197541966426858  C 21.948242187500004 8.615407673860913  21.679687500000004 9.152078337330131  21.6796875 9.80755395683453  C 21.679687500000004 10.446642685851318  21.948242187500004 10.975119904076738  22.4853515625 11.392985611510793  C 23.022460937500004 11.810851318944843  23.640950520833336 12.019784172661868  24.3408203125 12.019784172661868  C 25.008138020833336 12.019784172661868  25.541178385416668 11.819044764188646  25.93994140625 11.417565947242208  Z M 41.40625 23.52338129496403  C 41.829427083333336 23.162869704236606  42.04101562500001 22.745003996802556  42.041015625 22.26978417266187  C 42.04101562500001 21.810951239008787  41.829427083333336 21.401278976818546  41.40625 21.040767386091122  C 40.98307291666667 20.680255795363706  40.4541015625 20.5  39.8193359375 20.5  C 39.3798828125 20.5  38.97705078125 20.684352517985616  38.61083984375 21.053057553956837  C 38.24462890625 21.421762589928058  38.0615234375 21.827338129496404  38.0615234375 22.26978417266187  C 38.0615234375 22.72861710631495  38.24462890625 23.142386091127097  38.61083984375 23.51109112709832  C 38.97705078125 23.879796163069546  39.3798828125 24.064148681055155  39.8193359375 24.064148681055155  C 40.4541015625 24.064148681055155  40.98307291666667 23.883892885691445  41.40625 23.52338129496403  Z M 32.21435546875 6.108213429256593  C 33.931477864583336 8.017286171063146  35.042317708333336 10.151678657074342  35.546875 12.511390887290167  C 35.042317708333336 12.445843325339727  34.47265625 12.41306954436451  33.837890625 12.41306954436451  C 31.087239583333336 12.41306954436451  28.556315104166668 13.043964828137488  26.2451171875 14.305755395683455  C 23.933919270833336 15.567545963229414  22.115071614583336 17.27587929656275  20.78857421875 19.430755395683455  C 19.462076822916668 21.585631494804154  18.798828125 23.94124700239808  18.798828125 26.49760191846523  C 18.798828125 27.7757793764988  18.986002604166668 29.021183053557152  19.3603515625 30.233812949640292  C 18.790690104166668 30.28297362110312  18.2373046875 30.307553956834536  17.7001953125 30.307553956834536  C 17.277018229166668 30.307553956834536  16.8701171875 30.295263788968825  16.4794921875 30.27068345323741  C 16.0888671875 30.246103117505992  15.641276041666668 30.19284572342126  15.13671875 30.110911270983213  C 14.632161458333334 30.028976818545164  14.27001953125 29.971622701838527  14.05029296875 29.93884892086331  C 13.83056640625 29.90607513988808  13.387044270833334 29.820043964828137  12.7197265625 29.680755395683455  C 12.052408854166668 29.541466826538766  11.645507812500002 29.455435651478815  11.4990234375 29.422661870503596  L 5.322265625 32.544364508393286  L 7.080078125 27.185851318944845  C 2.3600260416666665 23.85931254996003  0 19.844524380495603  0 15.14148681055156  C 0 12.372102318145483  0.79345703125 9.823940847322138  2.38037109375 7.497002398081534  C 3.967285156250001 5.170063948840926  6.115722656250001 3.3388289368505157  8.82568359375 2.003297362110313  C 11.535644531250002 0.6677657873701013  14.493815104166668 0  17.7001953125 0  C 20.564778645833336 0  23.270670572916668 0.5407673860911283  25.81787109375 1.6223021582733803  C 28.365071614583336 2.703836930455637  30.497233072916668 4.19914068745004  32.21435546875 6.108213429256593  Z M 47.91259765625 19.82404076738609  C 49.30419921875 21.815047961630697  50 23.9740207833733  50 26.30095923261391  C 50 28.218225419664265  49.44254557291667 30.049460431654676  48.32763671875 31.79466426858513  C 47.212727864583336 33.53986810551559  45.70312500000001 35.125299760191844  43.798828125 36.550959232613906  L 45.1416015625 41  L 40.283203125 38.32074340527578  C 37.841796875 38.92705835331735  36.067708333333336 39.23021582733813  34.9609375 39.23021582733813  C 32.210286458333336 39.23021582733813  29.679361979166668 38.65257793764988  27.3681640625 37.49730215827338  C 25.056966145833336 36.34202637889688  23.238118489583336 34.772981614708236  21.91162109375 32.79016786570744  C 20.585123697916668 30.807354116706634  19.921875000000004 28.644284572342123  19.921875 26.30095923261391  C 19.921875000000004 23.95763389288569  20.585123697916668 21.79456434852118  21.91162109375 19.811750599520384  C 23.238118489583336 17.828936850519582  25.056966145833336 16.259892086330936  27.3681640625 15.104616306954439  C 29.679361979166668 13.949340527577938  32.210286458333336 13.371702637889687  34.9609375 13.371702637889687  C 37.581380208333336 13.371702637889687  40.047200520833336 13.949340527577938  42.3583984375 15.104616306954439  C 44.66959635416667 16.259892086330936  46.52099609375 17.833033573141485  47.91259765625 19.82404076738609  Z " fill-rule="nonzero" fill="#000000" stroke="none" transform="matrix(1 0 0 1 842 641 )" />
  </g>
</svg>