<?xml version="1.0" encoding="utf-8"?>
<svg version="1.1" xmlns:xlink="http://www.w3.org/1999/xlink" width="184px" height="184px" xmlns="http://www.w3.org/2000/svg">
  <g transform="matrix(1 0 0 1 -418 -117 )">
    <path d="M 103.29464285714286 82.96428571428571  C 105.75892857142857 80.43154761904762  106.99107142857143 76.83779761904762  106.99107142857143 72.18303571428571  C 106.99107142857143 66.15922619047618  104.9375 62.01785714285714  100.83035714285714 59.75892857142857  C 98.57142857142857 58.52678571428571  94.56696428571429 57.91071428571429  88.81696428571428 58  L 77 58  L 77 87  L 92.82142857142857 87  C 97.33928571428571 86.76339285714286  100.83035714285714 85.4970238095238  103.29464285714286 82.96428571428571  Z M 111.40625 99.80357142857143  C 111.81696428571429 100.48809523809523  112.125 101.03571428571428  112.33035714285714 101.44642857142857  L 133.3794642857143 139.74553571428572  C 133.92708333333334 140.90922619047618  133.89285714285714 141.9702380952381  133.2767857142857 142.92857142857144  C 132.72916666666669 144.02380952380955  131.80505952380952 144.57142857142856  130.5044642857143 144  L 114.89732142857143 144  C 113.52827380952382 144.57142857142856  112.5699404761905 143.98958333333331  112.02232142857143 142.82589285714286  L 92.10267857142857 105  L 77 105  L 77 141.28571428571428  C 76.1875 142.24404761904762  75.87946428571428 143.03125  75.26339285714285 143.64732142857144  C 74.64732142857143 144.26339285714286  73.86011904761905 144.57142857142856  72.90178571428572 144  L 59.142857142857146 144  C 58.18452380952382 144.57142857142856  57.39732142857143 144.26339285714286  56.78125 143.64732142857144  C 56.16517857142857 143.03125  55.857142857142854 142.24404761904762  56 141.28571428571428  L 56 42.71428571428571  C 55.857142857142854 41.755952380952365  56.16517857142857 40.96875  56.78125 40.35267857142857  C 57.39732142857143 39.73660714285714  58.18452380952382 39.42857142857143  59.142857142857146 40  L 89.33035714285715 40  C 98.09226190476191 39.42857142857143  104.59523809523812 40.25  108.83928571428571 41.89285714285714  C 114.65773809523812 44.014880952380935  119.24404761904763 47.74553571428571  122.59821428571429 53.08482142857143  C 125.95238095238095 58.42410714285714  127.62946428571429 64.58482142857143  127.62946428571429 71.56696428571429  C 127.62946428571429 77.86458333333331  126.1748511904762 83.52901785714286  123.265625 88.56026785714286  C 120.35639880952382 93.59151785714286  116.40327380952382 97.33928571428572  111.40625 99.80357142857143  Z M 121.36607142857143 22.43526785714286  C 112.05654761904763 18.43080357142857  102.26785714285714 16.42857142857143  92 16.42857142857143  C 81.73214285714285 16.42857142857143  71.94345238095238 18.43080357142857  62.63392857142857 22.43526785714286  C 53.32440476190476 26.43973214285714  45.2983630952381 31.813244047619044  38.55580357142858 38.55580357142857  C 31.81324404761905 45.298363095238074  26.439732142857142 53.32440476190475  22.435267857142858 62.63392857142857  C 18.43080357142857 71.94345238095237  16.42857142857143 81.73214285714286  16.42857142857143 92  C 16.42857142857143 102.26785714285714  18.43080357142857 112.05654761904762  22.435267857142858 121.36607142857143  C 26.439732142857142 130.67559523809524  31.81324404761905 138.7016369047619  38.55580357142858 145.44419642857144  C 45.2983630952381 152.18675595238096  53.32440476190476 157.56026785714286  62.63392857142857 161.56473214285714  C 71.94345238095238 165.56919642857144  81.73214285714285 167.57142857142856  92 167.57142857142856  C 102.26785714285714 167.57142857142856  112.05654761904763 165.56919642857144  121.36607142857143 161.56473214285714  C 130.67559523809524 157.56026785714286  138.70163690476193 152.18675595238096  145.44419642857144 145.44419642857144  C 152.18675595238096 138.7016369047619  157.56026785714286 130.67559523809524  161.56473214285714 121.36607142857143  C 165.56919642857144 112.05654761904762  167.57142857142858 102.26785714285714  167.57142857142856 92  C 167.57142857142858 81.73214285714286  165.56919642857144 71.94345238095237  161.56473214285714 62.63392857142857  C 157.56026785714286 53.32440476190475  152.18675595238096 45.298363095238074  145.44419642857144 38.55580357142857  C 138.70163690476193 31.813244047619044  130.67559523809524 26.43973214285714  121.36607142857143 22.43526785714286  Z M 176.70982142857144 56.26785714285714  C 181.5699404761905 67.63095238095237  184 79.54166666666666  184 92  C 184 104.45833333333331  181.5699404761905 116.36904761904762  176.70982142857144 127.73214285714286  C 171.8497023809524 139.0952380952381  165.31250000000003 148.88392857142856  157.0982142857143 157.09821428571428  C 148.88392857142856 165.3125  139.0952380952381 171.84970238095238  127.73214285714286 176.70982142857144  C 116.36904761904763 181.56994047619048  104.45833333333334 184  92 184  C 79.54166666666667 184  67.63095238095238 181.56994047619048  56.267857142857146 176.70982142857144  C 44.90476190476191 171.84970238095238  35.11607142857142 165.3125  26.901785714285715 157.09821428571428  C 18.6875 148.88392857142856  12.150297619047619 139.0952380952381  7.290178571428571 127.73214285714286  C 2.4300595238095233 116.36904761904762  0 104.45833333333331  0 92  C 0 79.54166666666666  2.4300595238095233 67.63095238095237  7.290178571428571 56.26785714285714  C 12.150297619047619 44.90476190476189  18.6875 35.11607142857143  26.901785714285715 26.901785714285705  C 35.11607142857142 18.6875  44.90476190476191 12.150297619047613  56.267857142857146 7.2901785714285685  C 67.63095238095238 2.430059523809523  79.54166666666667 0  92 0  C 104.45833333333334 0  116.36904761904763 2.430059523809523  127.73214285714286 7.2901785714285685  C 139.0952380952381 12.150297619047613  148.88392857142856 18.6875  157.0982142857143 26.901785714285705  C 165.31250000000003 35.11607142857143  171.8497023809524 44.90476190476189  176.70982142857144 56.26785714285714  Z " fill-rule="nonzero" fill="#000000" stroke="none" transform="matrix(1 0 0 1 418 117 )" />
  </g>
</svg>