<?xml version="1.0" encoding="utf-8"?>
<svg version="1.1" xmlns:xlink="http://www.w3.org/1999/xlink" width="49px" height="48px" xmlns="http://www.w3.org/2000/svg">
  <g transform="matrix(1 0 0 1 -717 -12 )">
    <path d="M 20.952604166666667 28.91993185689949  C 22.228645833333335 27.557069846678026  22.866666666666667 25.91254968767746  22.866666666666667 23.98637137989779  C 22.866666666666667 22.06019307211811  22.228645833333335 20.415672913117547  20.952604166666667 19.05281090289608  C 19.6765625 17.689948892674614  18.136805555555558 17.008517887563887  16.333333333333332 17.008517887563887  C 14.529861111111112 17.008517887563887  12.990104166666669 17.689948892674614  11.7140625 19.05281090289608  C 10.438020833333333 20.415672913117547  9.8 22.06019307211811  9.8 23.98637137989779  C 9.8 25.91254968767746  10.438020833333333 27.557069846678026  11.7140625 28.91993185689949  C 12.990104166666669 30.28279386712095  14.529861111111112 30.96422487223169  16.333333333333332 30.96422487223169  C 18.136805555555558 30.96422487223169  19.6765625 30.28279386712095  20.952604166666667 28.91993185689949  Z M 41.50963541666667 40.40885860306644  C 42.14765625 39.72742759795571  42.46666666666667 38.905167518455414  42.46666666666667 37.94207836456559  C 42.46666666666667 36.99716070414537  42.14340277777778 36.17944349801249  41.496875 35.48892674616695  C 40.850347222222226 34.7984099943214  40.084722222222226 34.453151618398635  39.2 34.453151618398635  C 38.31527777777778 34.453151618398635  37.54965277777778 34.7984099943214  36.903125 35.48892674616695  C 36.256597222222226 36.17944349801249  35.93333333333333 36.99716070414537  35.93333333333333 37.94207836456559  C 35.93333333333333 38.905167518455414  36.25234375 39.72742759795571  36.89036458333333 40.40885860306644  C 37.528385416666666 41.09028960817717  38.29826388888889 41.43100511073254  39.2 41.43100511073254  C 40.101736111111116 41.43100511073254  40.87161458333333 41.09028960817717  41.50963541666667 40.40885860306644  Z M 41.50963541666667 12.497444633730836  C 42.14765625 11.816013628620103  42.46666666666667 10.993753549119818  42.46666666666667 10.030664395229985  C 42.46666666666667 9.085746734809765  42.14340277777778 8.268029528676886  41.496875 7.577512776831346  C 40.850347222222226 6.886996024985802  40.084722222222226 6.541737649063032  39.2 6.541737649063032  C 38.31527777777778 6.541737649063032  37.54965277777778 6.886996024985802  36.903125 7.577512776831346  C 36.256597222222226 8.268029528676886  35.93333333333333 9.085746734809765  35.93333333333333 10.030664395229985  C 35.93333333333333 10.993753549119818  36.25234375 11.816013628620103  36.89036458333333 12.497444633730836  C 37.528385416666666 13.17887563884157  38.29826388888889 13.519591141396933  39.2 13.519591141396933  C 40.101736111111116 13.519591141396933  40.87161458333333 13.17887563884157  41.50963541666667 12.497444633730836  Z M 32.48802083333333 20.974446337308343  C 32.60711805555555 21.128904031800115  32.666666666666664 21.3060760931289  32.666666666666664 21.50596252129472  L 32.666666666666664 26.54855195911414  C 32.666666666666664 26.73026689381033  32.60711805555555 26.90743895513912  32.48802083333333 27.080068143100508  C 32.368923611111114 27.252697331061896  32.2328125 27.348097671777396  32.0796875 27.36626916524702  L 28.123958333333334 28.020442930153322  C 27.93680555555556 28.656445201590003  27.664583333333333 29.346961953435542  27.307291666666664 30.09199318568995  C 27.885763888888892 30.96422487223169  28.651388888888892 32.009085746734804  29.604166666666664 33.22657580919932  C 29.72326388888889 33.42646223736513  29.7828125 33.60817717206133  29.7828125 33.771720613287904  C 29.7828125 33.98977853492334  29.72326388888889 34.16240772288472  29.604166666666664 34.28960817717206  C 29.212847222222223 34.83475298126065  28.51102430555556 35.64792731402612  27.498697916666664 36.72913117546848  C 26.48637152777778 37.81033503691085  25.81857638888889 38.35093696763203  25.495312499999997 38.35093696763203  C 25.308159722222225 38.35093696763203  25.12951388888889 38.28733674048836  24.959375 38.16013628620102  L 22.024479166666666 35.70698466780239  C 21.39496527777778 36.052243043725156  20.739930555555556 36.33390119250426  20.059375 36.55195911413969  C 19.872222222222224 38.5144804088586  19.6765625 39.92277115275412  19.472395833333334 40.77683134582624  C 19.35329861111111 41.21294718909711  19.09809027777778 41.43100511073254  18.706770833333334 41.43100511073254  L 13.959895833333334 41.43100511073254  C 13.772743055555557 41.43100511073254  13.602604166666666 41.36286201022146  13.449479166666666 41.22657580919932  C 13.296354166666667 41.09028960817717  13.211284722222222 40.931289040318006  13.194270833333334 40.749574105621804  L 12.607291666666665 36.579216354344126  C 12.028819444444446 36.397501419647924  11.390798611111112 36.11584327086882  10.693229166666667 35.734241908006815  L 7.681770833333333 38.16013628620102  C 7.562673611111111 38.28733674048836  7.392534722222223 38.35093696763203  7.171354166666667 38.35093696763203  C 6.98420138888889 38.35093696763203  6.805555555555556 38.278250993753545  6.635416666666666 38.132879045996596  C 4.185416666666667 35.71607041453719  2.9604166666666667 34.262350936967636  2.9604166666666667 33.771720613287904  C 2.9604166666666667 33.60817717206133  3.019965277777778 33.43554798409994  3.1390624999999996 33.253833049403745  C 3.3092013888888894 32.99943214082907  3.657986111111111 32.51788756388416  4.185416666666667 31.809199318568993  C 4.712847222222223 31.10051107325383  5.112673611111112 30.546280522430433  5.384895833333333 30.14650766609881  C 4.993576388888889 29.346961953435542  4.695833333333334 28.601930721181144  4.491666666666666 27.911413969335605  L 0.6125 27.2572402044293  C 0.44236111111111115 27.23906871095968  0.2977430555555556 27.15275411697899  0.17864583333333334 26.998296422487225  C 0.0595486111111111 26.843838727995454  0 26.666666666666668  0 26.466780238500853  L 0 21.42419080068143  C 0 21.242475865985234  0.0595486111111111 21.065303804656445  0.17864583333333334 20.892674616695057  C 0.2977430555555556 20.720045428733677  0.43385416666666665 20.62464508801817  0.5869791666666667 20.606473594548554  L 4.542708333333334 19.95229982964225  C 4.729861111111111 19.316297558205562  5.002083333333333 18.625780806360023  5.359375 17.88074957410562  C 4.7809027777777775 17.008517887563887  4.0152777777777775 15.963657013060756  3.0625 14.746166950596253  C 2.943402777777778 14.54628052243043  2.8838541666666666 14.364565587734242  2.8838541666666666 14.201022146507666  C 2.8838541666666666 13.982964224872232  2.943402777777778 13.801249290176033  3.0625 13.65587734241908  C 3.4368055555555563 13.110732538330494  4.134375 12.30210107893242  5.155208333333333 11.22998296422487  C 6.176041666666666 10.157864849517315  6.8480902777777795 9.621805792163546  7.171354166666667 9.621805792163546  C 7.3585069444444455 9.621805792163546  7.537152777777778 9.68540601930721  7.707291666666666 9.81260647359455  L 10.6421875 12.265758091993185  C 11.220659722222223 11.938671209540033  11.875694444444445 11.647927314026122  12.607291666666665 11.393526405451446  C 12.794444444444446 9.43100511073254  12.990104166666665 8.031800113571828  13.194270833333334 7.195911413969336  C 13.313368055555559 6.759795570698467  13.568576388888891 6.541737649063032  13.959895833333334 6.541737649063032  L 18.706770833333334 6.541737649063032  C 18.893923611111113 6.541737649063032  19.0640625 6.609880749574108  19.2171875 6.746166950596255  C 19.3703125 6.882453151618396  19.455381944444444 7.041453719477566  19.472395833333334 7.223168654173765  L 20.059375 11.393526405451446  C 20.637847222222224 11.57524134014764  21.275868055555556 11.856899488926745  21.9734375 12.238500851788755  L 24.984895833333333 9.81260647359455  C 25.12100694444445 9.68540601930721  25.29114583333334 9.621805792163546  25.495312499999997 9.621805792163546  C 25.682465277777776 9.621805792163546  25.86111111111111 9.694491766042017  26.03125 9.83986371379898  C 28.481250000000003 12.256672345258373  29.706249999999997 13.710391822827939  29.706249999999997 14.201022146507666  C 29.706249999999997 14.34639409426462  29.64670138888889 14.519023282226001  29.52760416666667 14.718909710391824  C 29.323437499999997 15.00965360590573  28.966145833333336 15.500283929585457  28.455729166666664 16.190800681431007  C 27.9453125 16.881317433276546  27.5625 17.426462237365133  27.307291666666664 17.82623509369676  C 27.698611111111116 18.698466780238498  27.987847222222225 19.443498012492896  28.174999999999997 20.061328790459967  L 32.05416666666667 20.68824531516184  C 32.22430555555555 20.724588302101075  32.368923611111114 20.819988642816583  32.48802083333333 20.974446337308343  Z M 45.19739583333333 35.18909710391823  C 47.732465277777784 35.46166950596252  49.000000000000014 35.74332765474162  49 36.03407155025554  L 49 39.85008517887564  C 49.000000000000014 40.14082907438956  47.732465277777784 40.42248722316865  45.19739583333333 40.69505962521295  C 44.993229166666666 41.18568994889267  44.73802083333333 41.65814877910278  44.43177083333333 42.11243611584327  C 45.299479166666664 44.16581487791028  45.733333333333334 45.419647927314024  45.733333333333334 45.87393526405451  C 45.733333333333334 45.946621237932995  45.699305555555554 46.01022146507666  45.63125 46.064735945485516  C 43.55555555555556 47.3549119818285  42.50069444444445 48  42.46666666666667 48  C 42.33055555555556 48  41.939236111111114 47.572969903463935  41.29270833333333 46.71890971039182  C 40.64618055555555 45.864849517319705  40.20381944444445 45.24701873935264  39.965625 44.86541737649063  C 39.625347222222224 44.90176036342987  39.37013888888889 44.919931856899495  39.2 44.919931856899495  C 39.02986111111112 44.919931856899495  38.77465277777778 44.90176036342987  38.434375 44.86541737649063  C 38.19618055555556 45.24701873935264  37.753819444444446 45.864849517319705  37.10729166666667 46.71890971039182  C 36.46076388888889 47.572969903463935  36.06944444444445 48  35.93333333333333 48  C 35.89930555555556 48  34.84444444444445 47.3549119818285  32.76875 46.064735945485516  C 32.70069444444445 46.01022146507666  32.666666666666664 45.946621237932995  32.666666666666664 45.87393526405451  C 32.666666666666664 45.419647927314024  33.100520833333334 44.16581487791028  33.96822916666667 42.11243611584327  C 33.66197916666667 41.65814877910278  33.40677083333333 41.18568994889267  33.20260416666667 40.69505962521295  C 30.667534722222225 40.42248722316865  29.4 40.14082907438956  29.4 39.85008517887564  L 29.4 36.03407155025554  C 29.4 35.74332765474162  30.667534722222225 35.46166950596252  33.20260416666667 35.18909710391823  C 33.42378472222222 34.66212379329926  33.67899305555556 34.18966496308915  33.96822916666667 33.771720613287904  C 33.100520833333334 31.71834185122089  32.666666666666664 30.464508801817146  32.666666666666664 30.010221465076658  C 32.666666666666664 29.937535491198183  32.70069444444445 29.873935264054516  32.76875 29.819420783645658  C 32.83680555555556 29.78307779670641  33.134548611111114 29.601362862010223  33.66197916666667 29.27427597955707  C 34.18940972222222 28.94718909710392  34.691319444444446 28.63827370812038  35.16770833333333 28.347529812606474  C 35.64409722222222 28.056785917092558  35.89930555555556 27.911413969335605  35.93333333333333 27.911413969335605  C 36.06944444444445 27.911413969335605  36.46076388888889 28.333901192504257  37.10729166666667 29.178875638841568  C 37.753819444444446 30.023850085178875  38.19618055555556 30.637137989778537  38.434375 31.018739352640548  C 38.77465277777778 30.982396365701305  39.02986111111112 30.96422487223169  39.2 30.96422487223169  C 39.37013888888889 30.96422487223169  39.625347222222224 30.982396365701305  39.965625 31.018739352640548  C 40.83333333333334 29.728563316297553  41.61597222222223 28.71095968199886  42.313541666666666 27.965928449744464  L 42.46666666666667 27.911413969335605  C 42.53472222222223 27.911413969335605  43.589583333333344 28.547416240772286  45.63125 29.819420783645658  C 45.699305555555554 29.873935264054516  45.733333333333334 29.937535491198183  45.733333333333334 30.010221465076658  C 45.733333333333334 30.464508801817146  45.299479166666664 31.71834185122089  44.43177083333333 33.771720613287904  C 44.72100694444445 34.18966496308915  44.97621527777778 34.66212379329926  45.19739583333333 35.18909710391823  Z M 45.19739583333333 7.277683134582624  C 47.732465277777784 7.550255536626917  49.000000000000014 7.8319136854060165  49 8.122657580919933  L 49 11.938671209540033  C 49.000000000000014 12.229415105053944  47.732465277777784 12.511073253833048  45.19739583333333 12.783645655877342  C 44.993229166666666 13.27427597955707  44.73802083333333 13.746734809767174  44.43177083333333 14.201022146507666  C 45.299479166666664 16.254400908574674  45.733333333333334 17.50823395797842  45.733333333333334 17.962521294718908  C 45.733333333333334 18.035207268597382  45.699305555555554 18.098807495741056  45.63125 18.15332197614991  C 43.55555555555556 19.443498012492896  42.50069444444445 20.088586030664395  42.46666666666667 20.088586030664395  C 42.33055555555556 20.088586030664395  41.939236111111114 19.66155593412833  41.29270833333333 18.807495741056215  C 40.64618055555555 17.953435547984096  40.20381944444445 17.335604770017035  39.965625 16.954003407155028  C 39.625347222222224 16.990346394094264  39.37013888888889 17.008517887563887  39.2 17.008517887563887  C 39.02986111111112 17.008517887563887  38.77465277777778 16.990346394094264  38.434375 16.954003407155028  C 38.19618055555556 17.335604770017035  37.753819444444446 17.953435547984096  37.10729166666667 18.807495741056215  C 36.46076388888889 19.66155593412833  36.06944444444445 20.088586030664395  35.93333333333333 20.088586030664395  C 35.89930555555556 20.088586030664395  34.84444444444445 19.443498012492896  32.76875 18.15332197614991  C 32.70069444444445 18.098807495741056  32.666666666666664 18.035207268597382  32.666666666666664 17.962521294718908  C 32.666666666666664 17.50823395797842  33.100520833333334 16.254400908574674  33.96822916666667 14.201022146507666  C 33.66197916666667 13.746734809767174  33.40677083333333 13.27427597955707  33.20260416666667 12.783645655877342  C 30.667534722222225 12.511073253833048  29.4 12.229415105053944  29.4 11.938671209540033  L 29.4 8.122657580919933  C 29.4 7.8319136854060165  30.667534722222225 7.550255536626917  33.20260416666667 7.277683134582624  C 33.42378472222222 6.750709823963655  33.67899305555556 6.278250993753545  33.96822916666667 5.860306643952299  C 33.100520833333334 3.8069278818852883  32.666666666666664 2.5530948324815395  32.666666666666664 2.098807495741058  C 32.666666666666664 2.026121521862576  32.70069444444445 1.9625212947189112  32.76875 1.9080068143100526  C 32.83680555555556 1.8716638273708064  33.134548611111114 1.689948892674618  33.66197916666667 1.3628620102214661  C 34.18940972222222 1.0357751277683143  34.691319444444446 0.7268597387847748  35.16770833333333 0.43611584327086916  C 35.64409722222222 0.14537194775695284  35.89930555555556 0  35.93333333333333 0  C 36.06944444444445 0  36.46076388888889 0.42248722316865184  37.10729166666667 1.2674616695059608  C 37.753819444444446 2.11243611584327  38.19618055555556 2.7257240204429323  38.434375 3.107325383304943  C 38.77465277777778 3.0709823963656966  39.02986111111112 3.052810902896084  39.2 3.052810902896084  C 39.37013888888889 3.052810902896084  39.625347222222224 3.0709823963656966  39.965625 3.107325383304943  C 40.83333333333334 1.8171493469619477  41.61597222222223 0.7995457126632566  42.313541666666666 0.054514480408858645  L 42.46666666666667 0  C 42.53472222222223 0  43.589583333333344 0.6360022714366806  45.63125 1.9080068143100526  C 45.699305555555554 1.9625212947189112  45.733333333333334 2.026121521862576  45.733333333333334 2.098807495741058  C 45.733333333333334 2.5530948324815395  45.299479166666664 3.8069278818852883  44.43177083333333 5.860306643952299  C 44.72100694444445 6.278250993753545  44.97621527777778 6.750709823963655  45.19739583333333 7.277683134582624  Z " fill-rule="nonzero" fill="#000000" stroke="none" transform="matrix(1 0 0 1 717 12 )" />
  </g>
</svg>