<?xml version="1.0" encoding="utf-8"?>
<svg version="1.1" xmlns:xlink="http://www.w3.org/1999/xlink" width="435px" height="446px" xmlns="http://www.w3.org/2000/svg">
  <g transform="matrix(1 0 0 1 -355 -312 )">
    <path d="M 58.16556490384616 186.4140625  C 74.63491586538461 202.67447916666669  95.15625 213.61154513888889  119.72956730769232 219.22526041666669  C 106.8329326923077 187.86588541666669  100.38461538461539 151.95746527777774  100.38461538461539 112  L 34 112  L 34 139.375  C 33.46153846153846 154.47395833333331  41.69621394230769 170.15364583333331  58.16556490384616 186.4140625  Z M 376.83443509615387 186.4140625  C 393.3037860576923 170.15364583333331  401.53846153846155 154.47395833333331  401 139.375  L 401 112  L 334.61538461538464 112  C 334.61538461538464 151.95746527777774  328.1670673076923 187.86588541666669  315.2704326923077 219.22526041666669  C 339.84375 213.61154513888889  360.36508413461536 202.67447916666669  376.83443509615387 186.4140625  Z M 427.68028846153845 82.46354166666669  C 432.5600961538462 87.88368055555553  435 94.46527777777774  435 102.20833333333331  L 435 139.375  C 435 153.11892361111111  431.38371394230774 166.95963541666669  424.1511418269231 180.89713541666669  C 416.9185697115385 194.83463541666669  407.1589543269231 207.41710069444443  394.8722956730769 218.64453125  C 382.5856370192308 229.87196180555557  367.5105168269231 239.30881076388886  349.64693509615387 246.955078125  C 331.78335336538464 254.60134548611106  313.00480769230774 258.90842013888886  293.3112980769231 259.87630208333337  C 285.99158653846155 270.32942708333337  277.71334134615387 279.5243055555555  268.4765625 287.4609375  C 261.85396634615387 294.04253472222223  257.27914663461536 301.0596788194445  254.75210336538464 308.51236979166663  C 252.2250600961539 315.96506076388886  250.96153846153848 324.62760416666663  250.96153846153845 334.5  C 250.96153846153848 344.953125  253.61929086538464 353.7608506944444  258.9347956730769 360.9231770833333  C 264.2503004807692 368.0855034722223  272.7463942307692 371.6666666666667  284.4230769230769 371.6666666666667  C 297.49399038461536 371.6666666666667  309.12710336538464 376.0705295138889  319.32241586538464 384.8782552083333  C 329.51772836538464 393.6859809027777  334.61538461538464 404.7682291666667  334 418.125  L 334 436.7083333333333  C 334.61538461538464 439.4184027777777  333.8311298076923 441.64453125  332.2626201923077 443.38671875  C 330.6941105769231 445.12890625  328.68990384615387 446  326.25 446  L 108.75 446  C 106.31009615384617 446  104.30588942307693 445.12890625  102.7373798076923 443.38671875  C 101.1688701923077 441.64453125  100.38461538461539 439.4184027777777  101 436.7083333333333  L 101 418.125  C 100.38461538461539 404.7682291666667  105.48227163461539 393.6859809027777  115.67758413461539 384.8782552083333  C 125.87289663461539 376.0705295138889  137.5060096153846 371.6666666666667  150.57692307692307 371.6666666666667  C 162.2536057692308 371.6666666666667  170.7496995192308 368.0855034722223  176.06520432692307 360.9231770833333  C 181.3807091346154 353.7608506944444  184.03846153846155 344.953125  184.03846153846155 334.5  C 184.03846153846155 324.62760416666663  182.77493990384616 315.96506076388886  180.2478966346154 308.51236979166663  C 177.7208533653846 301.0596788194445  173.14603365384616 294.04253472222223  166.5234375 287.4609375  C 157.28665865384616 279.5243055555555  149.00841346153845 270.32942708333337  141.68870192307693 259.87630208333337  C 121.99519230769234 258.90842013888886  103.2166466346154 254.60134548611106  85.35306490384616 246.955078125  C 67.48948317307693 239.30881076388886  52.41436298076923 229.87196180555557  40.12770432692308 218.64453125  C 27.84104567307692 207.41710069444443  18.08143028846154 194.83463541666669  10.848858173076923 180.89713541666669  C 3.6162860576923075 166.95963541666669  0 153.11892361111111  0 139.375  L 0 102.20833333333331  C 0 94.46527777777774  2.439903846153846 87.88368055555553  7.319711538461538 82.46354166666669  C 12.199519230769234 77.04340277777774  18.125000000000004 74.33333333333331  25.096153846153847 75  L 101 75  L 101 46.458333333333314  C 100.38461538461539 33.682291666666686  104.48016826923076 22.74522569444442  112.67127403846153 13.647135416666684  C 120.86237980769232 4.549045138888845  130.7091346153846 0  142.21153846153845 0  L 292.78846153846155 0  C 304.29086538461536 0  314.13762019230774 4.549045138888845  322.32872596153845 13.647135416666684  C 330.5198317307692 22.74522569444442  334.61538461538464 33.682291666666686  334 46.458333333333314  L 334 75  L 409.90384615384613 75  C 416.87500000000006 74.33333333333331  422.80048076923083 77.04340277777774  427.68028846153845 82.46354166666669  Z " fill-rule="nonzero" fill="#000000" stroke="none" transform="matrix(1 0 0 1 355 312 )" />
  </g>
</svg>