<?xml version="1.0" encoding="utf-8"?>
<svg version="1.1" xmlns:xlink="http://www.w3.org/1999/xlink" width="87px" height="75px" xmlns="http://www.w3.org/2000/svg">
  <g transform="matrix(1 0 0 1 -1561 -1082 )">
    <path d="M 22.747317073170734 29  L 9.03951219512195 29  L 35.4790243902439 58.81911057692308  L 22.747317073170734 29  Z M 28.68878048780488 29  L 43.5 63.64182692307692  L 58.31121951219512 29  L 28.68878048780488 29  Z M 8.190731707317074 23  L 22.874634146341464 23  L 31.53219512195122 6  L 20.413170731707314 6  L 8.190731707317074 23  Z M 64.25268292682927 29  L 51.52097560975609 58.81911057692308  L 77.96048780487806 29  L 64.25268292682927 29  Z M 37.68585365853659 6  L 29.028292682926832 23  L 57.971707317073175 23  L 49.31414634146341 6  L 37.68585365853659 6  Z M 55.46780487804878 6  L 64.12536585365854 23  L 78.80926829268293 23  L 66.58682926829269 6  L 55.46780487804878 6  Z M 67.9448780487805 0  C 68.87853658536585 0  69.60000000000001 0.39062499999999445  70.10926829268293 1.171875  L 86.40585365853659 24.248798076923077  C 86.8019512195122 24.78966346153846  86.9858536585366 25.413161057692303  86.95756097560975 26.119290865384617  C 86.92926829268293 26.825420673076916  86.68878048780488 27.43389423076922  86.23609756097561 27.94471153846154  L 45.49463414634147 74.0985576923077  C 44.985365853658536 74.69951923076923  44.320487804878056 75  43.5 75  C 42.67951219512195 75  42.014634146341464 74.69951923076923  41.50536585365853 74.0985576923077  L 0.7639024390243904 27.94471153846154  C 0.31121951219512195 27.43389423076922  0.07073170731707316 26.825420673076916  0.042439024390243905 26.119290865384617  C 0.014146341463414631 25.413161057692303  0.19804878048780483 24.78966346153846  0.5941463414634146 24.248798076923077  L 16.890731707317073 1.171875  C 17.400000000000002 0.39062499999999445  18.121463414634146 0  19.055121951219512 0  L 67.9448780487805 0  Z " fill-rule="nonzero" fill="#000000" stroke="none" transform="matrix(1 0 0 1 1561 1082 )" />
  </g>
</svg>