<?xml version="1.0" encoding="utf-8"?>
<svg version="1.1" xmlns:xlink="http://www.w3.org/1999/xlink" width="144px" height="119px" xmlns="http://www.w3.org/2000/svg">
  <g transform="matrix(1 0 0 1 -15 -11 )">
    <path d="M 139.74107142857142 53.773125  C 142.58035714285717 60.41729166666665  144 68.67291666666667  144 78.53999999999999  C 144 86.77083333333331  140.59821428571428 97.951875  133.79464285714286 112.083125  C 133.63392857142858 112.43020833333334  133.35267857142858 113.02520833333334  132.95089285714286 113.868125  C 132.54910714285717 114.71104166666666  132.18750000000003 115.45479166666667  131.86607142857142 116.099375  C 131.5446428571429 116.74395833333334  131.19642857142858 117.28937499999999  130.82142857142858 117.735625  C 130.17857142857142 118.57854166666667  129.42857142857144 119  128.57142857142858 119  C 127.76785714285714 119  127.13839285714288 118.75208333333333  126.68303571428572 118.25625000000001  C 126.22767857142858 117.76041666666666  126 117.140625  126 116.39687500000001  C 126 115.950625  126.0669642857143 115.29364583333333  126.20089285714286 114.4259375  C 126.33482142857143 113.55822916666666  126.40178571428572 112.975625  126.40178571428572 112.67812500000001  C 126.66964285714286 109.30645833333334  126.80357142857146 106.25708333333334  126.80357142857142 103.53  C 126.80357142857146 98.52208333333334  126.33482142857144 94.03479166666666  125.39732142857142 90.068125  C 124.45982142857144 86.10145833333331  123.16071428571429 82.6678125  121.5 79.76718749999999  C 119.83928571428572 76.8665625  117.69642857142857 74.36260416666666  115.07142857142858 72.2553125  C 112.44642857142858 70.14802083333333  109.62053571428571 68.425  106.59375 67.08624999999999  C 103.5669642857143 65.7475  100.00446428571428 64.69385416666665  95.90625 63.92531249999999  C 91.80803571428572 63.15677083333334  87.68303571428571 62.62375  83.53125 62.326249999999995  C 79.37946428571429 62.02875  74.67857142857143 61.88  69.42857142857143 61  L 52 61  L 52 80.91999999999999  C 51.42857142857143 82.20916666666666  50.91964285714286 83.32479166666667  49.90178571428571 84.266875  C 48.88392857142858 85.20895833333333  47.67857142857144 85.67999999999999  46.28571428571429 85.67999999999999  C 44.89285714285715 85.67999999999999  43.6875 85.20895833333333  42.66964285714286 84.266875  L 1.5267857142857144 46.18687500000001  C 0.5089285714285714 45.24479166666666  0 44.129166666666656  0 42.839999999999996  C 0 41.55083333333333  0.5089285714285714 40.43520833333333  1.5267857142857144 39.493125000000006  L 42.66964285714286 1.4131249999999964  C 43.6875 0.47104166666666103  44.89285714285715 0  46.28571428571429 0  C 47.67857142857144 0  48.88392857142858 0.47104166666666103  49.90178571428571 1.4131249999999964  C 50.91964285714286 2.3552083333333185  51.42857142857143 3.470833333333321  52 4.760000000000004  L 52 24  L 69.42857142857143 24  C 107.625 23.799999999999994  131.0625 33.791041666666665  139.74107142857142 53.773125  Z " fill-rule="nonzero" fill="#000000" stroke="none" transform="matrix(1 0 0 1 15 11 )" />
  </g>
</svg>